G04 Layer: TopSilkLayer*
G04 EasyEDA v6.4.14, 2021-01-13T22:08:33+05:30*
G04 86367838682644779aaaf904656d52d0,3bf0aa112e6740ff84f30f28e6d2add8,10*
G04 Gerber Generator version 0.2*
G04 Scale: 100 percent, Rotated: No, Reflected: No *
G04 Dimensions in millimeters *
G04 leading zeros omitted , absolute positions ,4 integer and 5 decimal *
%FSLAX45Y45*%
%MOMM*%

%ADD15C,0.2032*%
%ADD41C,0.2540*%
%ADD42C,0.2000*%
%ADD43C,0.2030*%
%ADD44C,0.1270*%
%ADD45C,0.2007*%
%ADD46C,0.2500*%
%ADD47C,0.4000*%
%ADD48C,0.1524*%

%LPD*%
D15*
X1567942Y1143000D02*
G01*
X1682495Y1143000D01*
X1567942Y1143000D02*
G01*
X1567942Y1192021D01*
X1573529Y1208531D01*
X1578863Y1213865D01*
X1589786Y1219454D01*
X1600707Y1219454D01*
X1611629Y1213865D01*
X1617218Y1208531D01*
X1622552Y1192021D01*
X1622552Y1143000D01*
X1622552Y1181100D02*
G01*
X1682495Y1219454D01*
X1567942Y1255268D02*
G01*
X1682495Y1255268D01*
X1682495Y1255268D02*
G01*
X1682495Y1320800D01*
X1567942Y1356868D02*
G01*
X1622552Y1400555D01*
X1682495Y1400555D01*
X1567942Y1443989D02*
G01*
X1622552Y1400555D01*
X1567942Y1564131D02*
G01*
X1682495Y1564131D01*
X1567942Y1564131D02*
G01*
X1682495Y1640331D01*
X1567942Y1640331D02*
G01*
X1682495Y1640331D01*
X1567942Y1709165D02*
G01*
X1573529Y1698244D01*
X1584452Y1687321D01*
X1595373Y1681987D01*
X1611629Y1676400D01*
X1638807Y1676400D01*
X1655318Y1681987D01*
X1666239Y1687321D01*
X1677162Y1698244D01*
X1682495Y1709165D01*
X1682495Y1731010D01*
X1677162Y1741931D01*
X1666239Y1752854D01*
X1655318Y1758187D01*
X1638807Y1763776D01*
X1611629Y1763776D01*
X1595373Y1758187D01*
X1584452Y1752854D01*
X1573529Y1741931D01*
X1567942Y1731010D01*
X1567942Y1709165D01*
D48*
X2427300Y1855215D02*
G01*
X2427300Y1746250D01*
X2427300Y1855215D02*
G01*
X2474036Y1855215D01*
X2489530Y1850136D01*
X2494864Y1844802D01*
X2499944Y1834387D01*
X2499944Y1823973D01*
X2494864Y1813560D01*
X2489530Y1808479D01*
X2474036Y1803400D01*
X2427300Y1803400D01*
X2463622Y1803400D02*
G01*
X2499944Y1746250D01*
X2534234Y1834387D02*
G01*
X2544648Y1839721D01*
X2560396Y1855215D01*
X2560396Y1746250D01*
X2667330Y1855215D02*
G01*
X2615260Y1746250D01*
X2594686Y1855215D02*
G01*
X2667330Y1855215D01*
X8724900Y3379215D02*
G01*
X8724900Y3301237D01*
X8729979Y3285744D01*
X8740393Y3275329D01*
X8756141Y3270250D01*
X8766556Y3270250D01*
X8782050Y3275329D01*
X8792463Y3285744D01*
X8797543Y3301237D01*
X8797543Y3379215D01*
X8883904Y3379215D02*
G01*
X8831834Y3306571D01*
X8909811Y3306571D01*
X8883904Y3379215D02*
G01*
X8883904Y3270250D01*
X9372600Y711200D02*
G01*
X9372600Y633476D01*
X9372600Y711200D02*
G01*
X9398508Y711200D01*
X9409429Y707389D01*
X9417050Y700023D01*
X9420606Y692657D01*
X9424415Y681481D01*
X9424415Y662939D01*
X9420606Y652018D01*
X9417050Y644652D01*
X9409429Y637286D01*
X9398508Y633476D01*
X9372600Y633476D01*
X9448800Y696213D02*
G01*
X9456165Y700023D01*
X9467088Y711200D01*
X9467088Y633476D01*
X9605263Y685292D02*
G01*
X9605263Y633476D01*
X9605263Y670560D02*
G01*
X9616440Y681481D01*
X9623806Y685292D01*
X9634981Y685292D01*
X9642347Y681481D01*
X9645904Y670560D01*
X9645904Y633476D01*
X9645904Y670560D02*
G01*
X9657079Y681481D01*
X9664445Y685292D01*
X9675622Y685292D01*
X9682988Y681481D01*
X9686543Y670560D01*
X9686543Y633476D01*
X9710927Y711200D02*
G01*
X9714738Y707389D01*
X9718293Y711200D01*
X9714738Y714755D01*
X9710927Y711200D01*
X9714738Y685292D02*
G01*
X9714738Y633476D01*
X9742677Y685292D02*
G01*
X9742677Y633476D01*
X9742677Y670560D02*
G01*
X9753854Y681481D01*
X9761220Y685292D01*
X9772395Y685292D01*
X9779761Y681481D01*
X9783318Y670560D01*
X9783318Y633476D01*
X9807702Y711200D02*
G01*
X9811511Y707389D01*
X9815322Y711200D01*
X9811511Y714755D01*
X9807702Y711200D01*
X9811511Y685292D02*
G01*
X9811511Y633476D01*
X9429495Y528320D02*
G01*
X9458959Y450595D01*
X9488677Y528320D02*
G01*
X9458959Y450595D01*
X9516618Y509778D02*
G01*
X9516618Y513334D01*
X9520427Y520700D01*
X9523984Y524510D01*
X9531350Y528320D01*
X9546336Y528320D01*
X9553702Y524510D01*
X9557258Y520700D01*
X9561068Y513334D01*
X9561068Y505968D01*
X9557258Y498602D01*
X9549891Y487679D01*
X9513061Y450595D01*
X9564624Y450595D01*
X9592818Y469137D02*
G01*
X9589008Y465328D01*
X9592818Y461771D01*
X9596374Y465328D01*
X9592818Y469137D01*
X9628377Y528320D02*
G01*
X9669018Y528320D01*
X9646665Y498602D01*
X9657841Y498602D01*
X9665208Y495045D01*
X9669018Y491236D01*
X9672574Y480060D01*
X9672574Y472694D01*
X9669018Y461771D01*
X9661397Y454405D01*
X9650475Y450595D01*
X9639300Y450595D01*
X9628377Y454405D01*
X9624568Y457962D01*
X9620758Y465328D01*
X9700768Y469137D02*
G01*
X9696958Y465328D01*
X9700768Y461771D01*
X9704324Y465328D01*
X9700768Y469137D01*
X9750806Y528320D02*
G01*
X9739884Y524510D01*
X9732518Y513334D01*
X9728708Y495045D01*
X9728708Y483870D01*
X9732518Y465328D01*
X9739884Y454405D01*
X9750806Y450595D01*
X9758425Y450595D01*
X9769347Y454405D01*
X9776713Y465328D01*
X9780524Y483870D01*
X9780524Y495045D01*
X9776713Y513334D01*
X9769347Y524510D01*
X9758425Y528320D01*
X9750806Y528320D01*
X9372600Y345439D02*
G01*
X9391141Y267715D01*
X9409429Y345439D02*
G01*
X9391141Y267715D01*
X9409429Y345439D02*
G01*
X9427972Y267715D01*
X9446513Y345439D02*
G01*
X9427972Y267715D01*
X9470897Y345439D02*
G01*
X9470897Y267715D01*
X9470897Y345439D02*
G01*
X9518904Y345439D01*
X9470897Y308355D02*
G01*
X9500361Y308355D01*
X9470897Y267715D02*
G01*
X9518904Y267715D01*
X9543288Y345439D02*
G01*
X9543288Y267715D01*
X9543288Y345439D02*
G01*
X9572752Y267715D01*
X9602470Y345439D02*
G01*
X9572752Y267715D01*
X9602470Y345439D02*
G01*
X9602470Y267715D01*
X9648952Y345439D02*
G01*
X9641586Y341629D01*
X9634220Y334263D01*
X9630409Y326897D01*
X9626854Y315721D01*
X9626854Y297179D01*
X9630409Y286257D01*
X9634220Y278892D01*
X9641586Y271526D01*
X9648952Y267715D01*
X9663684Y267715D01*
X9671050Y271526D01*
X9678415Y278892D01*
X9682225Y286257D01*
X9685781Y297179D01*
X9685781Y315721D01*
X9682225Y326897D01*
X9678415Y334263D01*
X9671050Y341629D01*
X9663684Y345439D01*
X9648952Y345439D01*
X9761981Y334263D02*
G01*
X9754615Y341629D01*
X9743440Y345439D01*
X9728708Y345439D01*
X9717786Y341629D01*
X9710165Y334263D01*
X9710165Y326897D01*
X9713975Y319531D01*
X9717786Y315721D01*
X9725152Y312165D01*
X9747250Y304800D01*
X9754615Y300989D01*
X9758425Y297179D01*
X9761981Y289813D01*
X9761981Y278892D01*
X9754615Y271526D01*
X9743440Y267715D01*
X9728708Y267715D01*
X9717786Y271526D01*
X9710165Y278892D01*
X9790175Y286257D02*
G01*
X9786365Y282447D01*
X9790175Y278892D01*
X9793731Y282447D01*
X9790175Y286257D01*
X9873488Y326897D02*
G01*
X9869931Y334263D01*
X9862565Y341629D01*
X9855200Y345439D01*
X9840213Y345439D01*
X9832847Y341629D01*
X9825481Y334263D01*
X9821925Y326897D01*
X9818115Y315721D01*
X9818115Y297179D01*
X9821925Y286257D01*
X9825481Y278892D01*
X9832847Y271526D01*
X9840213Y267715D01*
X9855200Y267715D01*
X9862565Y271526D01*
X9869931Y278892D01*
X9873488Y286257D01*
X9953497Y326897D02*
G01*
X9949688Y334263D01*
X9942322Y341629D01*
X9934956Y345439D01*
X9920224Y345439D01*
X9912858Y341629D01*
X9905238Y334263D01*
X9901681Y326897D01*
X9897872Y315721D01*
X9897872Y297179D01*
X9901681Y286257D01*
X9905238Y278892D01*
X9912858Y271526D01*
X9920224Y267715D01*
X9934956Y267715D01*
X9942322Y271526D01*
X9949688Y278892D01*
X9953497Y286257D01*
X7874000Y2742184D02*
G01*
X7874000Y2669286D01*
X7874000Y2742184D02*
G01*
X7905241Y2742184D01*
X7915656Y2738628D01*
X7918958Y2735071D01*
X7922513Y2728213D01*
X7922513Y2721355D01*
X7918958Y2714497D01*
X7915656Y2710942D01*
X7905241Y2707386D01*
X7874000Y2707386D01*
X7898129Y2707386D02*
G01*
X7922513Y2669286D01*
X7993888Y2731770D02*
G01*
X7987029Y2738628D01*
X7976615Y2742184D01*
X7962645Y2742184D01*
X7952231Y2738628D01*
X7945374Y2731770D01*
X7945374Y2724657D01*
X7948929Y2717800D01*
X7952231Y2714497D01*
X7959090Y2710942D01*
X7979918Y2704084D01*
X7987029Y2700528D01*
X7990331Y2696971D01*
X7993888Y2690113D01*
X7993888Y2679700D01*
X7987029Y2672842D01*
X7976615Y2669286D01*
X7962645Y2669286D01*
X7952231Y2672842D01*
X7945374Y2679700D01*
X8040877Y2742184D02*
G01*
X8040877Y2669286D01*
X8016747Y2742184D02*
G01*
X8065261Y2742184D01*
X7901686Y2488184D02*
G01*
X7874000Y2415286D01*
X7901686Y2488184D02*
G01*
X7929372Y2415286D01*
X7884413Y2439670D02*
G01*
X7918958Y2439670D01*
X7973059Y2488184D02*
G01*
X7962645Y2484628D01*
X7955788Y2474213D01*
X7952231Y2456942D01*
X7952231Y2446528D01*
X7955788Y2429255D01*
X7962645Y2418842D01*
X7973059Y2415286D01*
X7979918Y2415286D01*
X7990331Y2418842D01*
X7997190Y2429255D01*
X8000745Y2446528D01*
X8000745Y2456942D01*
X7997190Y2474213D01*
X7990331Y2484628D01*
X7979918Y2488184D01*
X7973059Y2488184D01*
X7874000Y2234184D02*
G01*
X7874000Y2161286D01*
X7874000Y2234184D02*
G01*
X7898129Y2234184D01*
X7908543Y2230628D01*
X7915656Y2223770D01*
X7918958Y2216657D01*
X7922513Y2206497D01*
X7922513Y2188971D01*
X7918958Y2178557D01*
X7915656Y2171700D01*
X7908543Y2164842D01*
X7898129Y2161286D01*
X7874000Y2161286D01*
X7966202Y2234184D02*
G01*
X7955788Y2230628D01*
X7948929Y2220213D01*
X7945374Y2202942D01*
X7945374Y2192528D01*
X7948929Y2175255D01*
X7955788Y2164842D01*
X7966202Y2161286D01*
X7973059Y2161286D01*
X7983474Y2164842D01*
X7990331Y2175255D01*
X7993888Y2192528D01*
X7993888Y2202942D01*
X7990331Y2220213D01*
X7983474Y2230628D01*
X7973059Y2234184D01*
X7966202Y2234184D01*
X7874000Y1980184D02*
G01*
X7874000Y1907286D01*
X7874000Y1980184D02*
G01*
X7898129Y1980184D01*
X7908543Y1976628D01*
X7915656Y1969770D01*
X7918958Y1962657D01*
X7922513Y1952497D01*
X7922513Y1934971D01*
X7918958Y1924557D01*
X7915656Y1917700D01*
X7908543Y1910842D01*
X7898129Y1907286D01*
X7874000Y1907286D01*
X7987029Y1980184D02*
G01*
X7952231Y1980184D01*
X7948929Y1948942D01*
X7952231Y1952497D01*
X7962645Y1955800D01*
X7973059Y1955800D01*
X7983474Y1952497D01*
X7990331Y1945386D01*
X7993888Y1934971D01*
X7993888Y1928113D01*
X7990331Y1917700D01*
X7983474Y1910842D01*
X7973059Y1907286D01*
X7962645Y1907286D01*
X7952231Y1910842D01*
X7948929Y1914397D01*
X7945374Y1921255D01*
X7874000Y1726184D02*
G01*
X7874000Y1653286D01*
X7874000Y1726184D02*
G01*
X7898129Y1726184D01*
X7908543Y1722628D01*
X7915656Y1715770D01*
X7918958Y1708657D01*
X7922513Y1698497D01*
X7922513Y1680971D01*
X7918958Y1670557D01*
X7915656Y1663700D01*
X7908543Y1656842D01*
X7898129Y1653286D01*
X7874000Y1653286D01*
X7987029Y1715770D02*
G01*
X7983474Y1722628D01*
X7973059Y1726184D01*
X7966202Y1726184D01*
X7955788Y1722628D01*
X7948929Y1712213D01*
X7945374Y1694942D01*
X7945374Y1677670D01*
X7948929Y1663700D01*
X7955788Y1656842D01*
X7966202Y1653286D01*
X7969504Y1653286D01*
X7979918Y1656842D01*
X7987029Y1663700D01*
X7990331Y1674113D01*
X7990331Y1677670D01*
X7987029Y1688084D01*
X7979918Y1694942D01*
X7969504Y1698497D01*
X7966202Y1698497D01*
X7955788Y1694942D01*
X7948929Y1688084D01*
X7945374Y1677670D01*
X7874000Y1472184D02*
G01*
X7874000Y1399286D01*
X7874000Y1472184D02*
G01*
X7898129Y1472184D01*
X7908543Y1468628D01*
X7915656Y1461770D01*
X7918958Y1454657D01*
X7922513Y1444497D01*
X7922513Y1426971D01*
X7918958Y1416557D01*
X7915656Y1409700D01*
X7908543Y1402842D01*
X7898129Y1399286D01*
X7874000Y1399286D01*
X7993888Y1472184D02*
G01*
X7959090Y1399286D01*
X7945374Y1472184D02*
G01*
X7993888Y1472184D01*
X7874000Y1218184D02*
G01*
X7874000Y1145286D01*
X7874000Y1218184D02*
G01*
X7898129Y1218184D01*
X7908543Y1214628D01*
X7915656Y1207770D01*
X7918958Y1200657D01*
X7922513Y1190497D01*
X7922513Y1172971D01*
X7918958Y1162557D01*
X7915656Y1155700D01*
X7908543Y1148842D01*
X7898129Y1145286D01*
X7874000Y1145286D01*
X7962645Y1218184D02*
G01*
X7952231Y1214628D01*
X7948929Y1207770D01*
X7948929Y1200657D01*
X7952231Y1193800D01*
X7959090Y1190497D01*
X7973059Y1186942D01*
X7983474Y1183386D01*
X7990331Y1176528D01*
X7993888Y1169670D01*
X7993888Y1159255D01*
X7990331Y1152397D01*
X7987029Y1148842D01*
X7976615Y1145286D01*
X7962645Y1145286D01*
X7952231Y1148842D01*
X7948929Y1152397D01*
X7945374Y1159255D01*
X7945374Y1169670D01*
X7948929Y1176528D01*
X7955788Y1183386D01*
X7966202Y1186942D01*
X7979918Y1190497D01*
X7987029Y1193800D01*
X7990331Y1200657D01*
X7990331Y1207770D01*
X7987029Y1214628D01*
X7976615Y1218184D01*
X7962645Y1218184D01*
X7880858Y964184D02*
G01*
X7918958Y964184D01*
X7898129Y936497D01*
X7908543Y936497D01*
X7915656Y932942D01*
X7918958Y929386D01*
X7922513Y918971D01*
X7922513Y912113D01*
X7918958Y901700D01*
X7912100Y894842D01*
X7901686Y891286D01*
X7891272Y891286D01*
X7880858Y894842D01*
X7877556Y898397D01*
X7874000Y905255D01*
X7945374Y964184D02*
G01*
X7973059Y891286D01*
X8000745Y964184D02*
G01*
X7973059Y891286D01*
X8030463Y964184D02*
G01*
X8068563Y964184D01*
X8047990Y936497D01*
X8058150Y936497D01*
X8065261Y932942D01*
X8068563Y929386D01*
X8072120Y918971D01*
X8072120Y912113D01*
X8068563Y901700D01*
X8061706Y894842D01*
X8051291Y891286D01*
X8040877Y891286D01*
X8030463Y894842D01*
X8027161Y898397D01*
X8023606Y905255D01*
X9668256Y973328D02*
G01*
X9633458Y973328D01*
X9630156Y942086D01*
X9633458Y945642D01*
X9643872Y948944D01*
X9654286Y948944D01*
X9664700Y945642D01*
X9671558Y938529D01*
X9675113Y928115D01*
X9675113Y921257D01*
X9671558Y910844D01*
X9664700Y903986D01*
X9654286Y900429D01*
X9643872Y900429D01*
X9633458Y903986D01*
X9630156Y907542D01*
X9626600Y914400D01*
X9697974Y973328D02*
G01*
X9725659Y900429D01*
X9753345Y973328D02*
G01*
X9725659Y900429D01*
X9602470Y1209802D02*
G01*
X9598913Y1216913D01*
X9592056Y1223771D01*
X9584943Y1227328D01*
X9571227Y1227328D01*
X9564370Y1223771D01*
X9557258Y1216913D01*
X9553956Y1209802D01*
X9550400Y1199642D01*
X9550400Y1182115D01*
X9553956Y1171702D01*
X9557258Y1164844D01*
X9564370Y1157986D01*
X9571227Y1154429D01*
X9584943Y1154429D01*
X9592056Y1157986D01*
X9598913Y1164844D01*
X9602470Y1171702D01*
X9602470Y1182115D01*
X9584943Y1182115D02*
G01*
X9602470Y1182115D01*
X9625329Y1227328D02*
G01*
X9625329Y1154429D01*
X9625329Y1227328D02*
G01*
X9673590Y1154429D01*
X9673590Y1227328D02*
G01*
X9673590Y1154429D01*
X9696450Y1227328D02*
G01*
X9696450Y1154429D01*
X9696450Y1227328D02*
G01*
X9720834Y1227328D01*
X9731247Y1223771D01*
X9738106Y1216913D01*
X9741661Y1209802D01*
X9744963Y1199642D01*
X9744963Y1182115D01*
X9741661Y1171702D01*
X9738106Y1164844D01*
X9731247Y1157986D01*
X9720834Y1154429D01*
X9696450Y1154429D01*
X9626600Y1481328D02*
G01*
X9626600Y1408429D01*
X9626600Y1481328D02*
G01*
X9650729Y1481328D01*
X9661143Y1477771D01*
X9668256Y1470913D01*
X9671558Y1463802D01*
X9675113Y1453642D01*
X9675113Y1436115D01*
X9671558Y1425702D01*
X9668256Y1418844D01*
X9661143Y1411986D01*
X9650729Y1408429D01*
X9626600Y1408429D01*
X9732518Y1481328D02*
G01*
X9697974Y1432813D01*
X9749790Y1432813D01*
X9732518Y1481328D02*
G01*
X9732518Y1408429D01*
X9626600Y1735328D02*
G01*
X9626600Y1662429D01*
X9626600Y1735328D02*
G01*
X9650729Y1735328D01*
X9661143Y1731771D01*
X9668256Y1724913D01*
X9671558Y1717802D01*
X9675113Y1707642D01*
X9675113Y1690115D01*
X9671558Y1679702D01*
X9668256Y1672844D01*
X9661143Y1665986D01*
X9650729Y1662429D01*
X9626600Y1662429D01*
X9704831Y1735328D02*
G01*
X9742931Y1735328D01*
X9722104Y1707642D01*
X9732518Y1707642D01*
X9739629Y1704086D01*
X9742931Y1700529D01*
X9746488Y1690115D01*
X9746488Y1683257D01*
X9742931Y1672844D01*
X9736074Y1665986D01*
X9725659Y1662429D01*
X9715245Y1662429D01*
X9704831Y1665986D01*
X9701529Y1669542D01*
X9697974Y1676400D01*
X9626600Y1989328D02*
G01*
X9626600Y1916429D01*
X9626600Y1989328D02*
G01*
X9650729Y1989328D01*
X9661143Y1985771D01*
X9668256Y1978913D01*
X9671558Y1971802D01*
X9675113Y1961642D01*
X9675113Y1944115D01*
X9671558Y1933702D01*
X9668256Y1926844D01*
X9661143Y1919986D01*
X9650729Y1916429D01*
X9626600Y1916429D01*
X9701529Y1971802D02*
G01*
X9701529Y1975357D01*
X9704831Y1982215D01*
X9708388Y1985771D01*
X9715245Y1989328D01*
X9729215Y1989328D01*
X9736074Y1985771D01*
X9739629Y1982215D01*
X9742931Y1975357D01*
X9742931Y1968500D01*
X9739629Y1961642D01*
X9732518Y1951228D01*
X9697974Y1916429D01*
X9746488Y1916429D01*
X9652000Y2243328D02*
G01*
X9652000Y2170429D01*
X9652000Y2243328D02*
G01*
X9676129Y2243328D01*
X9686543Y2239771D01*
X9693656Y2232913D01*
X9696958Y2225802D01*
X9700513Y2215642D01*
X9700513Y2198115D01*
X9696958Y2187702D01*
X9693656Y2180844D01*
X9686543Y2173986D01*
X9676129Y2170429D01*
X9652000Y2170429D01*
X9723374Y2229357D02*
G01*
X9730231Y2232913D01*
X9740645Y2243328D01*
X9740645Y2170429D01*
X9626600Y2497328D02*
G01*
X9626600Y2424429D01*
X9626600Y2497328D02*
G01*
X9657841Y2497328D01*
X9668256Y2493771D01*
X9671558Y2490215D01*
X9675113Y2483357D01*
X9675113Y2476500D01*
X9671558Y2469642D01*
X9668256Y2466086D01*
X9657841Y2462529D01*
X9626600Y2462529D01*
X9650729Y2462529D02*
G01*
X9675113Y2424429D01*
X9697974Y2497328D02*
G01*
X9746488Y2424429D01*
X9746488Y2497328D02*
G01*
X9697974Y2424429D01*
X9650729Y2751328D02*
G01*
X9650729Y2678429D01*
X9626600Y2751328D02*
G01*
X9675113Y2751328D01*
X9697974Y2751328D02*
G01*
X9746488Y2678429D01*
X9746488Y2751328D02*
G01*
X9697974Y2678429D01*
X8495029Y3213100D02*
G01*
X8458200Y3116071D01*
X8495029Y3213100D02*
G01*
X8532113Y3116071D01*
X8472170Y3148584D02*
G01*
X8518143Y3148584D01*
X8562593Y3213100D02*
G01*
X8562593Y3116071D01*
X8562593Y3213100D02*
G01*
X8627109Y3116071D01*
X8627109Y3213100D02*
G01*
X8627109Y3116071D01*
X8690102Y3213100D02*
G01*
X8690102Y3116071D01*
X8657590Y3213100D02*
G01*
X8722359Y3213100D01*
X8752840Y3213100D02*
G01*
X8752840Y3116071D01*
X8752840Y3213100D02*
G01*
X8812784Y3213100D01*
X8752840Y3166871D02*
G01*
X8789670Y3166871D01*
X8752840Y3116071D02*
G01*
X8812784Y3116071D01*
X8843263Y3213100D02*
G01*
X8843263Y3116071D01*
X8843263Y3213100D02*
G01*
X8908034Y3116071D01*
X8908034Y3213100D02*
G01*
X8908034Y3116071D01*
X8938513Y3213100D02*
G01*
X8938513Y3116071D01*
X8938513Y3213100D02*
G01*
X9003029Y3116071D01*
X9003029Y3213100D02*
G01*
X9003029Y3116071D01*
X9070593Y3213100D02*
G01*
X9033509Y3116071D01*
X9070593Y3213100D02*
G01*
X9107424Y3116071D01*
X9047479Y3148584D02*
G01*
X9093708Y3148584D01*
X8534400Y317500D02*
G01*
X8534400Y265429D01*
X8537956Y255015D01*
X8544813Y248157D01*
X8555227Y244602D01*
X8562086Y244602D01*
X8572500Y248157D01*
X8579358Y255015D01*
X8582913Y265429D01*
X8582913Y317500D01*
X8654288Y307086D02*
G01*
X8647429Y313944D01*
X8637015Y317500D01*
X8623045Y317500D01*
X8612631Y313944D01*
X8605774Y307086D01*
X8605774Y299973D01*
X8609329Y293115D01*
X8612631Y289813D01*
X8619490Y286257D01*
X8640318Y279400D01*
X8647429Y275844D01*
X8650731Y272287D01*
X8654288Y265429D01*
X8654288Y255015D01*
X8647429Y248157D01*
X8637015Y244602D01*
X8623045Y244602D01*
X8612631Y248157D01*
X8605774Y255015D01*
X8677147Y317500D02*
G01*
X8677147Y244602D01*
X8677147Y317500D02*
G01*
X8708390Y317500D01*
X8718550Y313944D01*
X8722106Y310387D01*
X8725661Y303529D01*
X8725661Y296671D01*
X8722106Y289813D01*
X8718550Y286257D01*
X8708390Y282702D01*
X8677147Y282702D02*
G01*
X8708390Y282702D01*
X8718550Y279400D01*
X8722106Y275844D01*
X8725661Y268986D01*
X8725661Y258571D01*
X8722106Y251713D01*
X8718550Y248157D01*
X8708390Y244602D01*
X8677147Y244602D01*
X8801861Y317500D02*
G01*
X8801861Y244602D01*
X8801861Y317500D02*
G01*
X8829547Y244602D01*
X8857234Y317500D02*
G01*
X8829547Y244602D01*
X8857234Y317500D02*
G01*
X8857234Y244602D01*
X8880093Y317500D02*
G01*
X8880093Y244602D01*
X8954770Y299973D02*
G01*
X8951468Y307086D01*
X8944609Y313944D01*
X8937497Y317500D01*
X8923781Y317500D01*
X8916670Y313944D01*
X8909811Y307086D01*
X8906509Y299973D01*
X8902954Y289813D01*
X8902954Y272287D01*
X8906509Y261873D01*
X8909811Y255015D01*
X8916670Y248157D01*
X8923781Y244602D01*
X8937497Y244602D01*
X8944609Y248157D01*
X8951468Y255015D01*
X8954770Y261873D01*
X8977629Y317500D02*
G01*
X8977629Y244602D01*
X8977629Y317500D02*
G01*
X9008872Y317500D01*
X9019286Y313944D01*
X9022841Y310387D01*
X9026143Y303529D01*
X9026143Y296671D01*
X9022841Y289813D01*
X9019286Y286257D01*
X9008872Y282702D01*
X8977629Y282702D01*
X9002013Y282702D02*
G01*
X9026143Y244602D01*
X9069831Y317500D02*
G01*
X9062974Y313944D01*
X9056115Y307086D01*
X9052559Y299973D01*
X9049004Y289813D01*
X9049004Y272287D01*
X9052559Y261873D01*
X9056115Y255015D01*
X9062974Y248157D01*
X9069831Y244602D01*
X9083802Y244602D01*
X9090659Y248157D01*
X9097518Y255015D01*
X9101074Y261873D01*
X9104629Y272287D01*
X9104629Y289813D01*
X9101074Y299973D01*
X9097518Y307086D01*
X9090659Y313944D01*
X9083802Y317500D01*
X9069831Y317500D01*
X7721600Y241300D02*
G01*
X7794497Y241300D01*
X7721600Y241300D02*
G01*
X7721600Y272542D01*
X7725156Y282955D01*
X7728711Y286257D01*
X7735570Y289813D01*
X7742427Y289813D01*
X7749286Y286257D01*
X7752841Y282955D01*
X7756397Y272542D01*
X7756397Y241300D01*
X7756397Y265429D02*
G01*
X7794497Y289813D01*
X7721600Y312673D02*
G01*
X7794497Y312673D01*
X7721600Y312673D02*
G01*
X7721600Y357631D01*
X7756397Y312673D02*
G01*
X7756397Y340360D01*
X7794497Y312673D02*
G01*
X7794497Y357631D01*
X7732013Y429005D02*
G01*
X7725156Y422147D01*
X7721600Y411734D01*
X7721600Y397763D01*
X7725156Y387350D01*
X7732013Y380492D01*
X7739125Y380492D01*
X7745984Y384047D01*
X7749286Y387350D01*
X7752841Y394462D01*
X7759700Y415289D01*
X7763256Y422147D01*
X7766811Y425450D01*
X7773670Y429005D01*
X7784084Y429005D01*
X7790941Y422147D01*
X7794497Y411734D01*
X7794497Y397763D01*
X7790941Y387350D01*
X7784084Y380492D01*
X7721600Y451865D02*
G01*
X7794497Y451865D01*
X7721600Y451865D02*
G01*
X7721600Y496823D01*
X7756397Y451865D02*
G01*
X7756397Y479552D01*
X7794497Y451865D02*
G01*
X7794497Y496823D01*
X7721600Y544068D02*
G01*
X7794497Y544068D01*
X7721600Y519684D02*
G01*
X7721600Y568197D01*
X7909813Y289813D02*
G01*
X7902956Y282955D01*
X7899400Y272542D01*
X7899400Y258571D01*
X7902956Y248157D01*
X7909813Y241300D01*
X7916925Y241300D01*
X7923784Y244855D01*
X7927086Y248157D01*
X7930641Y255270D01*
X7937500Y275844D01*
X7941056Y282955D01*
X7944611Y286257D01*
X7951470Y289813D01*
X7961884Y289813D01*
X7968741Y282955D01*
X7972297Y272542D01*
X7972297Y258571D01*
X7968741Y248157D01*
X7961884Y241300D01*
X7899400Y312673D02*
G01*
X7972297Y329945D01*
X7899400Y347218D02*
G01*
X7972297Y329945D01*
X7899400Y347218D02*
G01*
X7972297Y364489D01*
X7899400Y382015D02*
G01*
X7972297Y364489D01*
X7899400Y404876D02*
G01*
X7972297Y404876D01*
X7899400Y451865D02*
G01*
X7972297Y451865D01*
X7899400Y427736D02*
G01*
X7899400Y476250D01*
X7916925Y550926D02*
G01*
X7909813Y547370D01*
X7902956Y540512D01*
X7899400Y533654D01*
X7899400Y519684D01*
X7902956Y512826D01*
X7909813Y505968D01*
X7916925Y502412D01*
X7927086Y499110D01*
X7944611Y499110D01*
X7955025Y502412D01*
X7961884Y505968D01*
X7968741Y512826D01*
X7972297Y519684D01*
X7972297Y533654D01*
X7968741Y540512D01*
X7961884Y547370D01*
X7955025Y550926D01*
X7899400Y573786D02*
G01*
X7972297Y573786D01*
X7899400Y622300D02*
G01*
X7972297Y622300D01*
X7934197Y573786D02*
G01*
X7934197Y622300D01*
X3619500Y3201415D02*
G01*
X3619500Y3092450D01*
X3619500Y3201415D02*
G01*
X3666236Y3201415D01*
X3681729Y3196336D01*
X3687063Y3191002D01*
X3692143Y3180587D01*
X3692143Y3170173D01*
X3687063Y3159760D01*
X3681729Y3154679D01*
X3666236Y3149600D01*
X3619500Y3149600D01*
X3655822Y3149600D02*
G01*
X3692143Y3092450D01*
X3726434Y3180587D02*
G01*
X3736847Y3185921D01*
X3752595Y3201415D01*
X3752595Y3092450D01*
X3817874Y3201415D02*
G01*
X3802379Y3196336D01*
X3791965Y3180587D01*
X3786886Y3154679D01*
X3786886Y3139186D01*
X3791965Y3113023D01*
X3802379Y3097529D01*
X3817874Y3092450D01*
X3828288Y3092450D01*
X3844036Y3097529D01*
X3854450Y3113023D01*
X3859529Y3139186D01*
X3859529Y3154679D01*
X3854450Y3180587D01*
X3844036Y3196336D01*
X3828288Y3201415D01*
X3817874Y3201415D01*
X1923531Y2287015D02*
G01*
X1913117Y2281936D01*
X1902703Y2271521D01*
X1897369Y2261107D01*
X1892289Y2245360D01*
X1892289Y2219452D01*
X1897369Y2203957D01*
X1902703Y2193544D01*
X1913117Y2183129D01*
X1923531Y2178050D01*
X1944359Y2178050D01*
X1954519Y2183129D01*
X1964933Y2193544D01*
X1970267Y2203957D01*
X1975347Y2219452D01*
X1975347Y2245360D01*
X1970267Y2261107D01*
X1964933Y2271521D01*
X1954519Y2281936D01*
X1944359Y2287015D01*
X1923531Y2287015D01*
X1939025Y2198623D02*
G01*
X1970267Y2167636D01*
X2061707Y2287015D02*
G01*
X2009637Y2214371D01*
X2087615Y2214371D01*
X2061707Y2287015D02*
G01*
X2061707Y2178050D01*
X7468615Y2260600D02*
G01*
X7390638Y2260600D01*
X7375143Y2255520D01*
X7364729Y2245105D01*
X7359650Y2229357D01*
X7359650Y2218944D01*
X7364729Y2203450D01*
X7375143Y2193036D01*
X7390638Y2187955D01*
X7468615Y2187955D01*
X7442708Y2148331D02*
G01*
X7447788Y2148331D01*
X7458202Y2143252D01*
X7463536Y2137918D01*
X7468615Y2127504D01*
X7468615Y2106929D01*
X7463536Y2096515D01*
X7458202Y2091181D01*
X7447788Y2086102D01*
X7437374Y2086102D01*
X7426959Y2091181D01*
X7411465Y2101595D01*
X7359650Y2153665D01*
X7359650Y2080768D01*
D15*
X7288784Y3912362D02*
G01*
X7094727Y3838447D01*
X7288784Y3764534D02*
G01*
X7094727Y3838447D01*
X7288784Y3648202D02*
G01*
X7279386Y3666744D01*
X7261097Y3685286D01*
X7242556Y3694429D01*
X7214870Y3703573D01*
X7168641Y3703573D01*
X7140956Y3694429D01*
X7122413Y3685286D01*
X7104125Y3666744D01*
X7094727Y3648202D01*
X7094727Y3611371D01*
X7104125Y3592829D01*
X7122413Y3574287D01*
X7140956Y3565144D01*
X7168641Y3556000D01*
X7214870Y3556000D01*
X7242556Y3565144D01*
X7261097Y3574287D01*
X7279386Y3592829D01*
X7288784Y3611371D01*
X7288784Y3648202D01*
X7288784Y3495039D02*
G01*
X7150100Y3495039D01*
X7122413Y3485642D01*
X7104125Y3467100D01*
X7094727Y3439413D01*
X7094727Y3421126D01*
X7104125Y3393439D01*
X7122413Y3374897D01*
X7150100Y3365500D01*
X7288784Y3365500D01*
X7288784Y3240023D02*
G01*
X7094727Y3240023D01*
X7288784Y3304539D02*
G01*
X7288784Y3175254D01*
X7261097Y3031236D02*
G01*
X7094727Y3031236D01*
X7177786Y3114294D02*
G01*
X7177786Y2948178D01*
X5988811Y3912362D02*
G01*
X5794756Y3838447D01*
X5988811Y3764534D02*
G01*
X5794756Y3838447D01*
X5988811Y3648202D02*
G01*
X5979413Y3666744D01*
X5961125Y3685286D01*
X5942584Y3694429D01*
X5914897Y3703573D01*
X5868670Y3703573D01*
X5840984Y3694429D01*
X5822441Y3685286D01*
X5803900Y3666744D01*
X5794756Y3648202D01*
X5794756Y3611371D01*
X5803900Y3592829D01*
X5822441Y3574287D01*
X5840984Y3565144D01*
X5868670Y3556000D01*
X5914897Y3556000D01*
X5942584Y3565144D01*
X5961125Y3574287D01*
X5979413Y3592829D01*
X5988811Y3611371D01*
X5988811Y3648202D01*
X5988811Y3495039D02*
G01*
X5850127Y3495039D01*
X5822441Y3485642D01*
X5803900Y3467100D01*
X5794756Y3439413D01*
X5794756Y3421126D01*
X5803900Y3393439D01*
X5822441Y3374897D01*
X5850127Y3365500D01*
X5988811Y3365500D01*
X5988811Y3240023D02*
G01*
X5794756Y3240023D01*
X5988811Y3304539D02*
G01*
X5988811Y3175254D01*
X5877813Y3114294D02*
G01*
X5877813Y2948178D01*
X7299197Y914400D02*
G01*
X7105141Y840486D01*
X7299197Y766571D02*
G01*
X7105141Y840486D01*
X7299197Y705612D02*
G01*
X7105141Y705612D01*
X7299197Y644652D02*
G01*
X7105141Y644652D01*
X7299197Y644652D02*
G01*
X7105141Y515365D01*
X7299197Y515365D02*
G01*
X7105141Y515365D01*
X7271511Y371347D02*
G01*
X7105141Y371347D01*
X7188200Y454405D02*
G01*
X7188200Y288289D01*
X5988811Y962405D02*
G01*
X5794756Y888492D01*
X5988811Y814578D02*
G01*
X5794756Y888492D01*
X5988811Y753618D02*
G01*
X5794756Y753618D01*
X5988811Y692657D02*
G01*
X5794756Y692657D01*
X5988811Y692657D02*
G01*
X5794756Y563371D01*
X5988811Y563371D02*
G01*
X5794756Y563371D01*
X5877813Y502412D02*
G01*
X5877813Y336295D01*
X6627901Y3162404D02*
G01*
X6434099Y3162404D01*
X6627901Y3162404D02*
G01*
X6434099Y3088490D01*
X6627901Y3014576D02*
G01*
X6434099Y3088490D01*
X6627901Y3014576D02*
G01*
X6434099Y3014576D01*
X6627901Y2889100D02*
G01*
X6434099Y2889100D01*
X6627901Y2953616D02*
G01*
X6627901Y2824330D01*
X6627901Y2745082D02*
G01*
X6627901Y2643482D01*
X6554241Y2698854D01*
X6554241Y2671168D01*
X6544843Y2652626D01*
X6535699Y2643482D01*
X6508013Y2634084D01*
X6489471Y2634084D01*
X6461785Y2643482D01*
X6443243Y2661770D01*
X6434099Y2689456D01*
X6434099Y2717142D01*
X6443243Y2745082D01*
X6452641Y2754226D01*
X6470929Y2763370D01*
X6600215Y2462380D02*
G01*
X6618757Y2471524D01*
X6627901Y2499210D01*
X6627901Y2517752D01*
X6618757Y2545438D01*
X6591071Y2563980D01*
X6544843Y2573124D01*
X6498615Y2573124D01*
X6461785Y2563980D01*
X6443243Y2545438D01*
X6434099Y2517752D01*
X6434099Y2508608D01*
X6443243Y2480922D01*
X6461785Y2462380D01*
X6489471Y2452982D01*
X6498615Y2452982D01*
X6526301Y2462380D01*
X6544843Y2480922D01*
X6554241Y2508608D01*
X6554241Y2517752D01*
X6544843Y2545438D01*
X6526301Y2563980D01*
X6498615Y2573124D01*
X6627901Y2336650D02*
G01*
X6618757Y2364336D01*
X6591071Y2382878D01*
X6544843Y2392022D01*
X6517157Y2392022D01*
X6470929Y2382878D01*
X6443243Y2364336D01*
X6434099Y2336650D01*
X6434099Y2318362D01*
X6443243Y2290422D01*
X6470929Y2272134D01*
X6517157Y2262736D01*
X6544843Y2262736D01*
X6591071Y2272134D01*
X6618757Y2290422D01*
X6627901Y2318362D01*
X6627901Y2336650D01*
X6627901Y2155802D02*
G01*
X6618757Y2183488D01*
X6600215Y2192632D01*
X6581927Y2192632D01*
X6563385Y2183488D01*
X6554241Y2164946D01*
X6544843Y2127862D01*
X6535699Y2100176D01*
X6517157Y2081888D01*
X6498615Y2072490D01*
X6470929Y2072490D01*
X6452641Y2081888D01*
X6443243Y2091032D01*
X6434099Y2118718D01*
X6434099Y2155802D01*
X6443243Y2183488D01*
X6452641Y2192632D01*
X6470929Y2201776D01*
X6498615Y2201776D01*
X6517157Y2192632D01*
X6535699Y2174090D01*
X6544843Y2146404D01*
X6554241Y2109574D01*
X6563385Y2091032D01*
X6581927Y2081888D01*
X6600215Y2081888D01*
X6618757Y2091032D01*
X6627901Y2118718D01*
X6627901Y2155802D01*
X6627901Y1869290D02*
G01*
X6434099Y1869290D01*
X6627901Y1869290D02*
G01*
X6627901Y1786232D01*
X6618757Y1758546D01*
X6609613Y1749402D01*
X6591071Y1740004D01*
X6572529Y1740004D01*
X6554241Y1749402D01*
X6544843Y1758546D01*
X6535699Y1786232D01*
X6535699Y1869290D02*
G01*
X6535699Y1786232D01*
X6526301Y1758546D01*
X6517157Y1749402D01*
X6498615Y1740004D01*
X6470929Y1740004D01*
X6452641Y1749402D01*
X6443243Y1758546D01*
X6434099Y1786232D01*
X6434099Y1869290D01*
X6627901Y1623672D02*
G01*
X6618757Y1642214D01*
X6600215Y1660502D01*
X6581927Y1669900D01*
X6554241Y1679044D01*
X6508013Y1679044D01*
X6480327Y1669900D01*
X6461785Y1660502D01*
X6443243Y1642214D01*
X6434099Y1623672D01*
X6434099Y1586842D01*
X6443243Y1568300D01*
X6461785Y1549758D01*
X6480327Y1540614D01*
X6508013Y1531216D01*
X6554241Y1531216D01*
X6581927Y1540614D01*
X6600215Y1549758D01*
X6618757Y1568300D01*
X6627901Y1586842D01*
X6627901Y1623672D01*
X6627901Y1396342D02*
G01*
X6434099Y1470256D01*
X6627901Y1396342D02*
G01*
X6434099Y1322682D01*
X6498615Y1442570D02*
G01*
X6498615Y1350368D01*
X6627901Y1261722D02*
G01*
X6434099Y1261722D01*
X6627901Y1261722D02*
G01*
X6627901Y1178410D01*
X6618757Y1150724D01*
X6609613Y1141580D01*
X6591071Y1132182D01*
X6572529Y1132182D01*
X6554241Y1141580D01*
X6544843Y1150724D01*
X6535699Y1178410D01*
X6535699Y1261722D01*
X6535699Y1196952D02*
G01*
X6434099Y1132182D01*
X6627901Y1071222D02*
G01*
X6434099Y1071222D01*
X6627901Y1071222D02*
G01*
X6627901Y1006706D01*
X6618757Y979020D01*
X6600215Y960478D01*
X6581927Y951334D01*
X6554241Y941936D01*
X6508013Y941936D01*
X6480327Y951334D01*
X6461785Y960478D01*
X6443243Y979020D01*
X6434099Y1006706D01*
X6434099Y1071222D01*
D48*
X10287012Y648715D02*
G01*
X10287012Y539750D01*
X10287012Y539750D02*
G01*
X10349242Y539750D01*
X10383532Y627887D02*
G01*
X10393946Y633221D01*
X10409694Y648715D01*
X10409694Y539750D01*
X10287012Y1067815D02*
G01*
X10287012Y958850D01*
X10287012Y958850D02*
G01*
X10349242Y958850D01*
X10388866Y1041907D02*
G01*
X10388866Y1046987D01*
X10393946Y1057402D01*
X10399280Y1062736D01*
X10409694Y1067815D01*
X10430522Y1067815D01*
X10440682Y1062736D01*
X10446016Y1057402D01*
X10451096Y1046987D01*
X10451096Y1036573D01*
X10446016Y1026160D01*
X10435602Y1010665D01*
X10383532Y958850D01*
X10456430Y958850D01*
X3924307Y3137915D02*
G01*
X3924307Y3028950D01*
X3924307Y3137915D02*
G01*
X3971043Y3137915D01*
X3986537Y3132836D01*
X3991871Y3127502D01*
X3996951Y3117087D01*
X3996951Y3106673D01*
X3991871Y3096260D01*
X3986537Y3091179D01*
X3971043Y3086100D01*
X3924307Y3086100D01*
X3960629Y3086100D02*
G01*
X3996951Y3028950D01*
X4057403Y3137915D02*
G01*
X4041655Y3132836D01*
X4036575Y3122421D01*
X4036575Y3112007D01*
X4041655Y3101594D01*
X4052069Y3096260D01*
X4072897Y3091179D01*
X4088391Y3086100D01*
X4098805Y3075686D01*
X4104139Y3065271D01*
X4104139Y3049523D01*
X4098805Y3039110D01*
X4093725Y3034029D01*
X4077977Y3028950D01*
X4057403Y3028950D01*
X4041655Y3034029D01*
X4036575Y3039110D01*
X4031241Y3049523D01*
X4031241Y3065271D01*
X4036575Y3075686D01*
X4046989Y3086100D01*
X4062483Y3091179D01*
X4083311Y3096260D01*
X4093725Y3101594D01*
X4098805Y3112007D01*
X4098805Y3122421D01*
X4093725Y3132836D01*
X4077977Y3137915D01*
X4057403Y3137915D01*
X408178Y3950207D02*
G01*
X402844Y3960621D01*
X392429Y3971036D01*
X382270Y3976115D01*
X361442Y3976115D01*
X351028Y3971036D01*
X340613Y3960621D01*
X335279Y3950207D01*
X330200Y3934460D01*
X330200Y3908552D01*
X335279Y3893057D01*
X340613Y3882644D01*
X351028Y3872229D01*
X361442Y3867150D01*
X382270Y3867150D01*
X392429Y3872229D01*
X402844Y3882644D01*
X408178Y3893057D01*
X442468Y3976115D02*
G01*
X442468Y3867150D01*
X442468Y3976115D02*
G01*
X515112Y3867150D01*
X515112Y3976115D02*
G01*
X515112Y3867150D01*
X554736Y3950207D02*
G01*
X554736Y3955287D01*
X559815Y3965702D01*
X565150Y3971036D01*
X575310Y3976115D01*
X596137Y3976115D01*
X606552Y3971036D01*
X611886Y3965702D01*
X616965Y3955287D01*
X616965Y3944873D01*
X611886Y3934460D01*
X601471Y3918965D01*
X549402Y3867150D01*
X622300Y3867150D01*
X818642Y3245357D02*
G01*
X756157Y3245357D01*
X787400Y3276600D02*
G01*
X787400Y3214370D01*
X508000Y3848100D02*
G01*
X508000Y3785870D01*
X3011677Y762507D02*
G01*
X3006343Y772921D01*
X2995929Y783336D01*
X2985770Y788415D01*
X2964941Y788415D01*
X2954527Y783336D01*
X2944113Y772921D01*
X2938779Y762507D01*
X2933700Y746760D01*
X2933700Y720852D01*
X2938779Y705357D01*
X2944113Y694944D01*
X2954527Y684529D01*
X2964941Y679450D01*
X2985770Y679450D01*
X2995929Y684529D01*
X3006343Y694944D01*
X3011677Y705357D01*
X3045968Y788415D02*
G01*
X3045968Y679450D01*
X3045968Y788415D02*
G01*
X3118611Y679450D01*
X3118611Y788415D02*
G01*
X3118611Y679450D01*
X3152902Y767587D02*
G01*
X3163315Y772921D01*
X3178809Y788415D01*
X3178809Y679450D01*
X3701541Y450342D02*
G01*
X3701541Y387857D01*
X3670300Y419100D02*
G01*
X3732529Y419100D01*
X2933700Y419100D02*
G01*
X2995929Y419100D01*
X1308100Y1118615D02*
G01*
X1308100Y1009650D01*
X1380744Y1118615D02*
G01*
X1308100Y1045971D01*
X1334007Y1071879D02*
G01*
X1380744Y1009650D01*
X1415034Y1097787D02*
G01*
X1425447Y1103121D01*
X1441195Y1118615D01*
X1441195Y1009650D01*
X11164315Y1600200D02*
G01*
X11055350Y1600200D01*
X11164315Y1527555D02*
G01*
X11055350Y1527555D01*
X11112500Y1600200D02*
G01*
X11112500Y1527555D01*
X11143488Y1493265D02*
G01*
X11148822Y1482852D01*
X11164315Y1467104D01*
X11055350Y1467104D01*
X4827270Y3366515D02*
G01*
X4827270Y3283457D01*
X4821936Y3267710D01*
X4816856Y3262629D01*
X4806441Y3257550D01*
X4796027Y3257550D01*
X4785613Y3262629D01*
X4780279Y3267710D01*
X4775200Y3283457D01*
X4775200Y3293871D01*
X4861559Y3345687D02*
G01*
X4871720Y3351021D01*
X4887468Y3366515D01*
X4887468Y3257550D01*
X10720070Y2096515D02*
G01*
X10720070Y2013457D01*
X10714736Y1997710D01*
X10709656Y1992629D01*
X10699241Y1987550D01*
X10688827Y1987550D01*
X10678413Y1992629D01*
X10673079Y1997710D01*
X10668000Y2013457D01*
X10668000Y2023871D01*
X10764520Y2096515D02*
G01*
X10821670Y2096515D01*
X10790681Y2054860D01*
X10806175Y2054860D01*
X10816590Y2049779D01*
X10821670Y2044700D01*
X10827004Y2028952D01*
X10827004Y2018537D01*
X10821670Y2003044D01*
X10811509Y1992629D01*
X10795761Y1987550D01*
X10780268Y1987550D01*
X10764520Y1992629D01*
X10759440Y1997710D01*
X10754359Y2008123D01*
X10986770Y1271015D02*
G01*
X10986770Y1187957D01*
X10981436Y1172210D01*
X10976356Y1167129D01*
X10965941Y1162050D01*
X10955527Y1162050D01*
X10945113Y1167129D01*
X10939779Y1172210D01*
X10934700Y1187957D01*
X10934700Y1198371D01*
X11072875Y1271015D02*
G01*
X11021059Y1198371D01*
X11098784Y1198371D01*
X11072875Y1271015D02*
G01*
X11072875Y1162050D01*
X5106670Y2553715D02*
G01*
X5106670Y2470657D01*
X5101336Y2454910D01*
X5096256Y2449829D01*
X5085841Y2444750D01*
X5075427Y2444750D01*
X5065013Y2449829D01*
X5059679Y2454910D01*
X5054600Y2470657D01*
X5054600Y2481071D01*
X5140959Y2532887D02*
G01*
X5151120Y2538221D01*
X5166868Y2553715D01*
X5166868Y2444750D01*
X5201158Y2532887D02*
G01*
X5211572Y2538221D01*
X5227065Y2553715D01*
X5227065Y2444750D01*
X5170170Y1563115D02*
G01*
X5170170Y1480057D01*
X5164836Y1464310D01*
X5159756Y1459229D01*
X5149341Y1454150D01*
X5138927Y1454150D01*
X5128513Y1459229D01*
X5123179Y1464310D01*
X5118100Y1480057D01*
X5118100Y1490471D01*
X5271770Y1526794D02*
G01*
X5266690Y1511300D01*
X5256275Y1500886D01*
X5240781Y1495552D01*
X5235447Y1495552D01*
X5219954Y1500886D01*
X5209540Y1511300D01*
X5204459Y1526794D01*
X5204459Y1531873D01*
X5209540Y1547621D01*
X5219954Y1558036D01*
X5235447Y1563115D01*
X5240781Y1563115D01*
X5256275Y1558036D01*
X5266690Y1547621D01*
X5271770Y1526794D01*
X5271770Y1500886D01*
X5266690Y1474723D01*
X5256275Y1459229D01*
X5240781Y1454150D01*
X5230368Y1454150D01*
X5214620Y1459229D01*
X5209540Y1469644D01*
X3087370Y2033015D02*
G01*
X3087370Y1949957D01*
X3082036Y1934210D01*
X3076956Y1929129D01*
X3066541Y1924050D01*
X3056127Y1924050D01*
X3045713Y1929129D01*
X3040379Y1934210D01*
X3035300Y1949957D01*
X3035300Y1960371D01*
X3183890Y2033015D02*
G01*
X3131820Y2033015D01*
X3126740Y1986279D01*
X3131820Y1991360D01*
X3147568Y1996694D01*
X3163061Y1996694D01*
X3178809Y1991360D01*
X3188970Y1981200D01*
X3194304Y1965452D01*
X3194304Y1955037D01*
X3188970Y1939544D01*
X3178809Y1929129D01*
X3163061Y1924050D01*
X3147568Y1924050D01*
X3131820Y1929129D01*
X3126740Y1934210D01*
X3121659Y1944623D01*
X3112770Y2312415D02*
G01*
X3112770Y2229357D01*
X3107436Y2213610D01*
X3102356Y2208529D01*
X3091941Y2203450D01*
X3081527Y2203450D01*
X3071113Y2208529D01*
X3065779Y2213610D01*
X3060700Y2229357D01*
X3060700Y2239771D01*
X3209290Y2296921D02*
G01*
X3204209Y2307336D01*
X3188461Y2312415D01*
X3178047Y2312415D01*
X3162554Y2307336D01*
X3152140Y2291587D01*
X3147059Y2265679D01*
X3147059Y2239771D01*
X3152140Y2218944D01*
X3162554Y2208529D01*
X3178047Y2203450D01*
X3183381Y2203450D01*
X3198875Y2208529D01*
X3209290Y2218944D01*
X3214370Y2234437D01*
X3214370Y2239771D01*
X3209290Y2255265D01*
X3198875Y2265679D01*
X3183381Y2270760D01*
X3178047Y2270760D01*
X3162554Y2265679D01*
X3152140Y2255265D01*
X3147059Y2239771D01*
X877570Y3137915D02*
G01*
X877570Y3054857D01*
X872236Y3039110D01*
X867155Y3034029D01*
X856742Y3028950D01*
X846328Y3028950D01*
X835913Y3034029D01*
X830579Y3039110D01*
X825500Y3054857D01*
X825500Y3065271D01*
X911860Y3117087D02*
G01*
X922020Y3122421D01*
X937768Y3137915D01*
X937768Y3028950D01*
X1003300Y3137915D02*
G01*
X987552Y3132836D01*
X977137Y3117087D01*
X972057Y3091179D01*
X972057Y3075686D01*
X977137Y3049523D01*
X987552Y3034029D01*
X1003300Y3028950D01*
X1013460Y3028950D01*
X1029207Y3034029D01*
X1039621Y3049523D01*
X1044702Y3075686D01*
X1044702Y3091179D01*
X1039621Y3117087D01*
X1029207Y3132836D01*
X1013460Y3137915D01*
X1003300Y3137915D01*
X7722870Y3772915D02*
G01*
X7722870Y3689857D01*
X7717536Y3674110D01*
X7712456Y3669029D01*
X7702041Y3663950D01*
X7691627Y3663950D01*
X7681213Y3669029D01*
X7675879Y3674110D01*
X7670800Y3689857D01*
X7670800Y3700271D01*
X7829804Y3772915D02*
G01*
X7777734Y3663950D01*
X7757159Y3772915D02*
G01*
X7829804Y3772915D01*
X10402570Y3036315D02*
G01*
X10402570Y2953257D01*
X10397236Y2937510D01*
X10392156Y2932429D01*
X10381741Y2927350D01*
X10371327Y2927350D01*
X10360913Y2932429D01*
X10355579Y2937510D01*
X10350500Y2953257D01*
X10350500Y2963671D01*
X10462768Y3036315D02*
G01*
X10447020Y3031236D01*
X10441940Y3020821D01*
X10441940Y3010407D01*
X10447020Y2999994D01*
X10457434Y2994660D01*
X10478261Y2989579D01*
X10494009Y2984500D01*
X10504170Y2974086D01*
X10509504Y2963671D01*
X10509504Y2947923D01*
X10504170Y2937510D01*
X10499090Y2932429D01*
X10483595Y2927350D01*
X10462768Y2927350D01*
X10447020Y2932429D01*
X10441940Y2937510D01*
X10436859Y2947923D01*
X10436859Y2963671D01*
X10441940Y2974086D01*
X10452354Y2984500D01*
X10467847Y2989579D01*
X10488675Y2994660D01*
X10499090Y2999994D01*
X10504170Y3010407D01*
X10504170Y3020821D01*
X10499090Y3031236D01*
X10483595Y3036315D01*
X10462768Y3036315D01*
X10402570Y3925315D02*
G01*
X10402570Y3842257D01*
X10397236Y3826510D01*
X10392156Y3821429D01*
X10381741Y3816350D01*
X10371327Y3816350D01*
X10360913Y3821429D01*
X10355579Y3826510D01*
X10350500Y3842257D01*
X10350500Y3852671D01*
X10441940Y3899407D02*
G01*
X10441940Y3904487D01*
X10447020Y3914902D01*
X10452354Y3920236D01*
X10462768Y3925315D01*
X10483595Y3925315D01*
X10494009Y3920236D01*
X10499090Y3914902D01*
X10504170Y3904487D01*
X10504170Y3894073D01*
X10499090Y3883660D01*
X10488675Y3868165D01*
X10436859Y3816350D01*
X10509504Y3816350D01*
X4635487Y2261615D02*
G01*
X4635487Y2152650D01*
X4635487Y2152650D02*
G01*
X4697717Y2152650D01*
X4742421Y2261615D02*
G01*
X4799571Y2261615D01*
X4768583Y2219960D01*
X4784077Y2219960D01*
X4794491Y2214879D01*
X4799571Y2209800D01*
X4804905Y2194052D01*
X4804905Y2183637D01*
X4799571Y2168144D01*
X4789157Y2157729D01*
X4773663Y2152650D01*
X4758169Y2152650D01*
X4742421Y2157729D01*
X4737341Y2162810D01*
X4732007Y2173223D01*
X5063743Y2055621D02*
G01*
X5053329Y2066036D01*
X5037836Y2071115D01*
X5017008Y2071115D01*
X5001513Y2066036D01*
X4991100Y2055621D01*
X4991100Y2045207D01*
X4996179Y2034794D01*
X5001513Y2029460D01*
X5011927Y2024379D01*
X5043170Y2013965D01*
X5053329Y2008886D01*
X5058663Y2003552D01*
X5063743Y1993137D01*
X5063743Y1977644D01*
X5053329Y1967229D01*
X5037836Y1962150D01*
X5017008Y1962150D01*
X5001513Y1967229D01*
X4991100Y1977644D01*
X5150104Y2071115D02*
G01*
X5150104Y1988057D01*
X5144770Y1972310D01*
X5139690Y1967229D01*
X5129275Y1962150D01*
X5118861Y1962150D01*
X5108447Y1967229D01*
X5103368Y1972310D01*
X5098034Y1988057D01*
X5098034Y1998471D01*
X5189474Y2045207D02*
G01*
X5189474Y2050287D01*
X5194808Y2060702D01*
X5199888Y2066036D01*
X5210302Y2071115D01*
X5231129Y2071115D01*
X5241543Y2066036D01*
X5246624Y2060702D01*
X5251958Y2050287D01*
X5251958Y2039873D01*
X5246624Y2029460D01*
X5236209Y2013965D01*
X5184393Y1962150D01*
X5257038Y1962150D01*
X2489197Y2414015D02*
G01*
X2489197Y2305050D01*
X2489197Y2414015D02*
G01*
X2535933Y2414015D01*
X2551427Y2408936D01*
X2556761Y2403602D01*
X2561841Y2393187D01*
X2561841Y2382773D01*
X2556761Y2372360D01*
X2551427Y2367279D01*
X2535933Y2362200D01*
X2489197Y2362200D01*
X2525519Y2362200D02*
G01*
X2561841Y2305050D01*
X2596131Y2393187D02*
G01*
X2606545Y2398521D01*
X2622293Y2414015D01*
X2622293Y2305050D01*
X2666997Y2414015D02*
G01*
X2724147Y2414015D01*
X2692905Y2372360D01*
X2708399Y2372360D01*
X2718813Y2367279D01*
X2724147Y2362200D01*
X2729227Y2346452D01*
X2729227Y2336037D01*
X2724147Y2320544D01*
X2713733Y2310129D01*
X2697985Y2305050D01*
X2682491Y2305050D01*
X2666997Y2310129D01*
X2661663Y2315210D01*
X2656583Y2325623D01*
X4749800Y1601215D02*
G01*
X4749800Y1492250D01*
X4749800Y1601215D02*
G01*
X4796536Y1601215D01*
X4812029Y1596136D01*
X4817363Y1590802D01*
X4822443Y1580387D01*
X4822443Y1569973D01*
X4817363Y1559560D01*
X4812029Y1554479D01*
X4796536Y1549400D01*
X4749800Y1549400D01*
X4786122Y1549400D02*
G01*
X4822443Y1492250D01*
X4856734Y1580387D02*
G01*
X4867147Y1585721D01*
X4882895Y1601215D01*
X4882895Y1492250D01*
X4979415Y1601215D02*
G01*
X4927600Y1601215D01*
X4922265Y1554479D01*
X4927600Y1559560D01*
X4943093Y1564894D01*
X4958588Y1564894D01*
X4974336Y1559560D01*
X4984750Y1549400D01*
X4989829Y1533652D01*
X4989829Y1523237D01*
X4984750Y1507744D01*
X4974336Y1497329D01*
X4958588Y1492250D01*
X4943093Y1492250D01*
X4927600Y1497329D01*
X4922265Y1502410D01*
X4917186Y1512823D01*
X2501897Y2960115D02*
G01*
X2501897Y2851150D01*
X2501897Y2960115D02*
G01*
X2548633Y2960115D01*
X2564127Y2955036D01*
X2569461Y2949702D01*
X2574541Y2939287D01*
X2574541Y2928873D01*
X2569461Y2918460D01*
X2564127Y2913379D01*
X2548633Y2908300D01*
X2501897Y2908300D01*
X2538219Y2908300D02*
G01*
X2574541Y2851150D01*
X2608831Y2939287D02*
G01*
X2619245Y2944621D01*
X2634993Y2960115D01*
X2634993Y2851150D01*
X2731513Y2944621D02*
G01*
X2726433Y2955036D01*
X2710685Y2960115D01*
X2700271Y2960115D01*
X2684777Y2955036D01*
X2674363Y2939287D01*
X2669283Y2913379D01*
X2669283Y2887471D01*
X2674363Y2866644D01*
X2684777Y2856229D01*
X2700271Y2851150D01*
X2705605Y2851150D01*
X2721099Y2856229D01*
X2731513Y2866644D01*
X2736847Y2882137D01*
X2736847Y2887471D01*
X2731513Y2902965D01*
X2721099Y2913379D01*
X2705605Y2918460D01*
X2700271Y2918460D01*
X2684777Y2913379D01*
X2674363Y2902965D01*
X2669283Y2887471D01*
X4724400Y1982215D02*
G01*
X4724400Y1873250D01*
X4724400Y1982215D02*
G01*
X4771136Y1982215D01*
X4786629Y1977136D01*
X4791963Y1971802D01*
X4797043Y1961387D01*
X4797043Y1950973D01*
X4791963Y1940560D01*
X4786629Y1935479D01*
X4771136Y1930400D01*
X4724400Y1930400D01*
X4760722Y1930400D02*
G01*
X4797043Y1873250D01*
X4831334Y1961387D02*
G01*
X4841747Y1966721D01*
X4857495Y1982215D01*
X4857495Y1873250D01*
X4959350Y1945894D02*
G01*
X4954015Y1930400D01*
X4943602Y1919986D01*
X4928108Y1914652D01*
X4922774Y1914652D01*
X4907279Y1919986D01*
X4896865Y1930400D01*
X4891786Y1945894D01*
X4891786Y1950973D01*
X4896865Y1966721D01*
X4907279Y1977136D01*
X4922774Y1982215D01*
X4928108Y1982215D01*
X4943602Y1977136D01*
X4954015Y1966721D01*
X4959350Y1945894D01*
X4959350Y1919986D01*
X4954015Y1893823D01*
X4943602Y1878329D01*
X4928108Y1873250D01*
X4917693Y1873250D01*
X4902200Y1878329D01*
X4896865Y1888744D01*
X4216397Y343915D02*
G01*
X4216397Y234950D01*
X4216397Y343915D02*
G01*
X4263133Y343915D01*
X4278627Y338836D01*
X4283961Y333502D01*
X4289041Y323087D01*
X4289041Y312673D01*
X4283961Y302260D01*
X4278627Y297179D01*
X4263133Y292100D01*
X4216397Y292100D01*
X4252719Y292100D02*
G01*
X4289041Y234950D01*
X4390895Y307594D02*
G01*
X4385815Y292100D01*
X4375401Y281686D01*
X4359907Y276352D01*
X4354573Y276352D01*
X4339079Y281686D01*
X4328665Y292100D01*
X4323331Y307594D01*
X4323331Y312673D01*
X4328665Y328421D01*
X4339079Y338836D01*
X4354573Y343915D01*
X4359907Y343915D01*
X4375401Y338836D01*
X4385815Y328421D01*
X4390895Y307594D01*
X4390895Y281686D01*
X4385815Y255523D01*
X4375401Y240029D01*
X4359907Y234950D01*
X4349493Y234950D01*
X4333745Y240029D01*
X4328665Y250444D01*
X1498597Y2642615D02*
G01*
X1498597Y2533650D01*
X1498597Y2642615D02*
G01*
X1545333Y2642615D01*
X1560827Y2637536D01*
X1566161Y2632202D01*
X1571241Y2621787D01*
X1571241Y2611373D01*
X1566161Y2600960D01*
X1560827Y2595879D01*
X1545333Y2590800D01*
X1498597Y2590800D01*
X1534919Y2590800D02*
G01*
X1571241Y2533650D01*
X1605531Y2621787D02*
G01*
X1615945Y2627121D01*
X1631693Y2642615D01*
X1631693Y2533650D01*
X1671063Y2616707D02*
G01*
X1671063Y2621787D01*
X1676397Y2632202D01*
X1681477Y2637536D01*
X1691891Y2642615D01*
X1712719Y2642615D01*
X1723133Y2637536D01*
X1728213Y2632202D01*
X1733547Y2621787D01*
X1733547Y2611373D01*
X1728213Y2600960D01*
X1717799Y2585465D01*
X1665983Y2533650D01*
X1738627Y2533650D01*
X10236197Y1258315D02*
G01*
X10236197Y1149350D01*
X10236197Y1258315D02*
G01*
X10282933Y1258315D01*
X10298427Y1253236D01*
X10303761Y1247902D01*
X10308841Y1237487D01*
X10308841Y1227073D01*
X10303761Y1216660D01*
X10298427Y1211579D01*
X10282933Y1206500D01*
X10236197Y1206500D01*
X10272519Y1206500D02*
G01*
X10308841Y1149350D01*
X10353545Y1258315D02*
G01*
X10410695Y1258315D01*
X10379707Y1216660D01*
X10395201Y1216660D01*
X10405615Y1211579D01*
X10410695Y1206500D01*
X10416029Y1190752D01*
X10416029Y1180337D01*
X10410695Y1164844D01*
X10400281Y1154429D01*
X10384787Y1149350D01*
X10369293Y1149350D01*
X10353545Y1154429D01*
X10348465Y1159510D01*
X10343131Y1169923D01*
X10248897Y1537715D02*
G01*
X10248897Y1428750D01*
X10248897Y1537715D02*
G01*
X10295633Y1537715D01*
X10311127Y1532636D01*
X10316461Y1527302D01*
X10321541Y1516887D01*
X10321541Y1506473D01*
X10316461Y1496060D01*
X10311127Y1490979D01*
X10295633Y1485900D01*
X10248897Y1485900D01*
X10285219Y1485900D02*
G01*
X10321541Y1428750D01*
X10407901Y1537715D02*
G01*
X10355831Y1465071D01*
X10433809Y1465071D01*
X10407901Y1537715D02*
G01*
X10407901Y1428750D01*
X10375897Y1791715D02*
G01*
X10375897Y1682750D01*
X10375897Y1791715D02*
G01*
X10422633Y1791715D01*
X10438127Y1786636D01*
X10443461Y1781302D01*
X10448541Y1770887D01*
X10448541Y1760473D01*
X10443461Y1750060D01*
X10438127Y1744979D01*
X10422633Y1739900D01*
X10375897Y1739900D01*
X10412219Y1739900D02*
G01*
X10448541Y1682750D01*
X10545315Y1791715D02*
G01*
X10493245Y1791715D01*
X10488165Y1744979D01*
X10493245Y1750060D01*
X10508993Y1755394D01*
X10524487Y1755394D01*
X10539981Y1750060D01*
X10550395Y1739900D01*
X10555729Y1724152D01*
X10555729Y1713737D01*
X10550395Y1698244D01*
X10539981Y1687829D01*
X10524487Y1682750D01*
X10508993Y1682750D01*
X10493245Y1687829D01*
X10488165Y1692910D01*
X10482831Y1703323D01*
X2806697Y1829815D02*
G01*
X2806697Y1720850D01*
X2806697Y1829815D02*
G01*
X2853433Y1829815D01*
X2868927Y1824736D01*
X2874261Y1819402D01*
X2879341Y1808987D01*
X2879341Y1798573D01*
X2874261Y1788160D01*
X2868927Y1783079D01*
X2853433Y1778000D01*
X2806697Y1778000D01*
X2843019Y1778000D02*
G01*
X2879341Y1720850D01*
X2913631Y1808987D02*
G01*
X2924045Y1814321D01*
X2939793Y1829815D01*
X2939793Y1720850D01*
X3025899Y1829815D02*
G01*
X2974083Y1757171D01*
X3051807Y1757171D01*
X3025899Y1829815D02*
G01*
X3025899Y1720850D01*
X10210800Y2642615D02*
G01*
X10210800Y2533650D01*
X10210800Y2642615D02*
G01*
X10257536Y2642615D01*
X10273029Y2637536D01*
X10278363Y2632202D01*
X10283443Y2621787D01*
X10283443Y2611373D01*
X10278363Y2600960D01*
X10273029Y2595879D01*
X10257536Y2590800D01*
X10210800Y2590800D01*
X10247122Y2590800D02*
G01*
X10283443Y2533650D01*
X10390631Y2642615D02*
G01*
X10338561Y2533650D01*
X10317734Y2642615D02*
G01*
X10390631Y2642615D01*
X10312400Y2401315D02*
G01*
X10312400Y2292350D01*
X10312400Y2401315D02*
G01*
X10359136Y2401315D01*
X10374629Y2396236D01*
X10379963Y2390902D01*
X10385043Y2380487D01*
X10385043Y2370073D01*
X10379963Y2359660D01*
X10374629Y2354579D01*
X10359136Y2349500D01*
X10312400Y2349500D01*
X10348722Y2349500D02*
G01*
X10385043Y2292350D01*
X10481818Y2385821D02*
G01*
X10476484Y2396236D01*
X10460990Y2401315D01*
X10450575Y2401315D01*
X10435081Y2396236D01*
X10424668Y2380487D01*
X10419334Y2354579D01*
X10419334Y2328671D01*
X10424668Y2307844D01*
X10435081Y2297429D01*
X10450575Y2292350D01*
X10455909Y2292350D01*
X10471404Y2297429D01*
X10481818Y2307844D01*
X10486897Y2323337D01*
X10486897Y2328671D01*
X10481818Y2344165D01*
X10471404Y2354579D01*
X10455909Y2359660D01*
X10450575Y2359660D01*
X10435081Y2354579D01*
X10424668Y2344165D01*
X10419334Y2328671D01*
X3809997Y3455415D02*
G01*
X3809997Y3346450D01*
X3809997Y3455415D02*
G01*
X3856733Y3455415D01*
X3872227Y3450336D01*
X3877561Y3445002D01*
X3882641Y3434587D01*
X3882641Y3424173D01*
X3877561Y3413760D01*
X3872227Y3408679D01*
X3856733Y3403600D01*
X3809997Y3403600D01*
X3846319Y3403600D02*
G01*
X3882641Y3346450D01*
X3916931Y3434587D02*
G01*
X3927345Y3439921D01*
X3943093Y3455415D01*
X3943093Y3346450D01*
X3977383Y3434587D02*
G01*
X3987797Y3439921D01*
X4003291Y3455415D01*
X4003291Y3346450D01*
X10248900Y3353815D02*
G01*
X10248900Y3244850D01*
X10248900Y3353815D02*
G01*
X10295636Y3353815D01*
X10311129Y3348736D01*
X10316463Y3343402D01*
X10321543Y3332987D01*
X10321543Y3322573D01*
X10316463Y3312160D01*
X10311129Y3307079D01*
X10295636Y3302000D01*
X10248900Y3302000D01*
X10285222Y3302000D02*
G01*
X10321543Y3244850D01*
X10355834Y3332987D02*
G01*
X10366247Y3338321D01*
X10381995Y3353815D01*
X10381995Y3244850D01*
X10210800Y3620515D02*
G01*
X10210800Y3511550D01*
X10210800Y3620515D02*
G01*
X10257536Y3620515D01*
X10273029Y3615436D01*
X10278363Y3610102D01*
X10283443Y3599687D01*
X10283443Y3589273D01*
X10278363Y3578860D01*
X10273029Y3573779D01*
X10257536Y3568700D01*
X10210800Y3568700D01*
X10247122Y3568700D02*
G01*
X10283443Y3511550D01*
X10323068Y3594607D02*
G01*
X10323068Y3599687D01*
X10328147Y3610102D01*
X10333481Y3615436D01*
X10343895Y3620515D01*
X10364470Y3620515D01*
X10374884Y3615436D01*
X10380218Y3610102D01*
X10385297Y3599687D01*
X10385297Y3589273D01*
X10380218Y3578860D01*
X10369804Y3563365D01*
X10317734Y3511550D01*
X10390631Y3511550D01*
X8988018Y3935221D02*
G01*
X8977604Y3945636D01*
X8962110Y3950715D01*
X8941282Y3950715D01*
X8925788Y3945636D01*
X8915374Y3935221D01*
X8915374Y3924807D01*
X8920454Y3914394D01*
X8925788Y3909060D01*
X8936202Y3903979D01*
X8967444Y3893565D01*
X8977604Y3888486D01*
X8982938Y3883152D01*
X8988018Y3872737D01*
X8988018Y3857244D01*
X8977604Y3846829D01*
X8962110Y3841750D01*
X8941282Y3841750D01*
X8925788Y3846829D01*
X8915374Y3857244D01*
X9022308Y3950715D02*
G01*
X9048470Y3841750D01*
X9074378Y3950715D02*
G01*
X9048470Y3841750D01*
X9074378Y3950715D02*
G01*
X9100286Y3841750D01*
X9126194Y3950715D02*
G01*
X9100286Y3841750D01*
X9160484Y3929887D02*
G01*
X9170898Y3935221D01*
X9186646Y3950715D01*
X9186646Y3841750D01*
X3989570Y3937507D02*
G01*
X3984236Y3947921D01*
X3973822Y3958336D01*
X3963662Y3963415D01*
X3942834Y3963415D01*
X3932420Y3958336D01*
X3922006Y3947921D01*
X3916672Y3937507D01*
X3911592Y3921760D01*
X3911592Y3895852D01*
X3916672Y3880357D01*
X3922006Y3869944D01*
X3932420Y3859529D01*
X3942834Y3854450D01*
X3963662Y3854450D01*
X3973822Y3859529D01*
X3984236Y3869944D01*
X3989570Y3880357D01*
X4023860Y3942587D02*
G01*
X4034274Y3947921D01*
X4049768Y3963415D01*
X4049768Y3854450D01*
X4878570Y3962907D02*
G01*
X4873236Y3973321D01*
X4862822Y3983736D01*
X4852662Y3988815D01*
X4831834Y3988815D01*
X4821420Y3983736D01*
X4811006Y3973321D01*
X4805672Y3962907D01*
X4800592Y3947160D01*
X4800592Y3921252D01*
X4805672Y3905757D01*
X4811006Y3895344D01*
X4821420Y3884929D01*
X4831834Y3879850D01*
X4852662Y3879850D01*
X4862822Y3884929D01*
X4873236Y3895344D01*
X4878570Y3905757D01*
X4917940Y3962907D02*
G01*
X4917940Y3967987D01*
X4923274Y3978402D01*
X4928354Y3983736D01*
X4938768Y3988815D01*
X4959596Y3988815D01*
X4970010Y3983736D01*
X4975090Y3978402D01*
X4980424Y3967987D01*
X4980424Y3957573D01*
X4975090Y3947160D01*
X4964676Y3931665D01*
X4912860Y3879850D01*
X4985504Y3879850D01*
X8345677Y3797807D02*
G01*
X8340343Y3808221D01*
X8329929Y3818636D01*
X8319770Y3823715D01*
X8298941Y3823715D01*
X8288527Y3818636D01*
X8278113Y3808221D01*
X8272779Y3797807D01*
X8267700Y3782060D01*
X8267700Y3756152D01*
X8272779Y3740657D01*
X8278113Y3730244D01*
X8288527Y3719829D01*
X8298941Y3714750D01*
X8319770Y3714750D01*
X8329929Y3719829D01*
X8340343Y3730244D01*
X8345677Y3740657D01*
X8442197Y3823715D02*
G01*
X8390381Y3823715D01*
X8385047Y3776979D01*
X8390381Y3782060D01*
X8405875Y3787394D01*
X8421370Y3787394D01*
X8437118Y3782060D01*
X8447531Y3771900D01*
X8452611Y3756152D01*
X8452611Y3745737D01*
X8447531Y3730244D01*
X8437118Y3719829D01*
X8421370Y3714750D01*
X8405875Y3714750D01*
X8390381Y3719829D01*
X8385047Y3724910D01*
X8379968Y3735323D01*
X3875275Y3670807D02*
G01*
X3869941Y3681221D01*
X3859527Y3691636D01*
X3849367Y3696715D01*
X3828539Y3696715D01*
X3818125Y3691636D01*
X3807711Y3681221D01*
X3802377Y3670807D01*
X3797297Y3655060D01*
X3797297Y3629152D01*
X3802377Y3613657D01*
X3807711Y3603244D01*
X3818125Y3592829D01*
X3828539Y3587750D01*
X3849367Y3587750D01*
X3859527Y3592829D01*
X3869941Y3603244D01*
X3875275Y3613657D01*
X3935473Y3696715D02*
G01*
X3919979Y3691636D01*
X3914645Y3681221D01*
X3914645Y3670807D01*
X3919979Y3660394D01*
X3930393Y3655060D01*
X3950967Y3649979D01*
X3966715Y3644900D01*
X3977129Y3634486D01*
X3982209Y3624071D01*
X3982209Y3608323D01*
X3977129Y3597910D01*
X3971795Y3592829D01*
X3956301Y3587750D01*
X3935473Y3587750D01*
X3919979Y3592829D01*
X3914645Y3597910D01*
X3909565Y3608323D01*
X3909565Y3624071D01*
X3914645Y3634486D01*
X3925059Y3644900D01*
X3940807Y3649979D01*
X3961381Y3655060D01*
X3971795Y3660394D01*
X3977129Y3670807D01*
X3977129Y3681221D01*
X3971795Y3691636D01*
X3956301Y3696715D01*
X3935473Y3696715D01*
X2313177Y3937507D02*
G01*
X2307843Y3947921D01*
X2297429Y3958336D01*
X2287270Y3963415D01*
X2266441Y3963415D01*
X2256027Y3958336D01*
X2245613Y3947921D01*
X2240279Y3937507D01*
X2235200Y3921760D01*
X2235200Y3895852D01*
X2240279Y3880357D01*
X2245613Y3869944D01*
X2256027Y3859529D01*
X2266441Y3854450D01*
X2287270Y3854450D01*
X2297429Y3859529D01*
X2307843Y3869944D01*
X2313177Y3880357D01*
X2420111Y3963415D02*
G01*
X2368295Y3854450D01*
X2347468Y3963415D02*
G01*
X2420111Y3963415D01*
X1233678Y3874007D02*
G01*
X1228344Y3884421D01*
X1217929Y3894836D01*
X1207770Y3899915D01*
X1186942Y3899915D01*
X1176528Y3894836D01*
X1166113Y3884421D01*
X1160779Y3874007D01*
X1155700Y3858260D01*
X1155700Y3832352D01*
X1160779Y3816857D01*
X1166113Y3806444D01*
X1176528Y3796029D01*
X1186942Y3790950D01*
X1207770Y3790950D01*
X1217929Y3796029D01*
X1228344Y3806444D01*
X1233678Y3816857D01*
X1330197Y3884421D02*
G01*
X1325118Y3894836D01*
X1309370Y3899915D01*
X1299210Y3899915D01*
X1283462Y3894836D01*
X1273047Y3879087D01*
X1267968Y3853179D01*
X1267968Y3827271D01*
X1273047Y3806444D01*
X1283462Y3796029D01*
X1299210Y3790950D01*
X1304289Y3790950D01*
X1319784Y3796029D01*
X1330197Y3806444D01*
X1335531Y3821937D01*
X1335531Y3827271D01*
X1330197Y3842765D01*
X1319784Y3853179D01*
X1304289Y3858260D01*
X1299210Y3858260D01*
X1283462Y3853179D01*
X1273047Y3842765D01*
X1267968Y3827271D01*
X1898131Y1918715D02*
G01*
X1887717Y1913636D01*
X1877303Y1903221D01*
X1871969Y1892807D01*
X1866889Y1877060D01*
X1866889Y1851152D01*
X1871969Y1835657D01*
X1877303Y1825244D01*
X1887717Y1814829D01*
X1898131Y1809750D01*
X1918959Y1809750D01*
X1929119Y1814829D01*
X1939533Y1825244D01*
X1944867Y1835657D01*
X1949947Y1851152D01*
X1949947Y1877060D01*
X1944867Y1892807D01*
X1939533Y1903221D01*
X1929119Y1913636D01*
X1918959Y1918715D01*
X1898131Y1918715D01*
X1913625Y1830323D02*
G01*
X1944867Y1799336D01*
X1984237Y1897887D02*
G01*
X1994651Y1903221D01*
X2010399Y1918715D01*
X2010399Y1809750D01*
X2291831Y1144015D02*
G01*
X2281417Y1138936D01*
X2271003Y1128521D01*
X2265669Y1118107D01*
X2260589Y1102360D01*
X2260589Y1076452D01*
X2265669Y1060957D01*
X2271003Y1050544D01*
X2281417Y1040129D01*
X2291831Y1035050D01*
X2312659Y1035050D01*
X2322819Y1040129D01*
X2333233Y1050544D01*
X2338567Y1060957D01*
X2343647Y1076452D01*
X2343647Y1102360D01*
X2338567Y1118107D01*
X2333233Y1128521D01*
X2322819Y1138936D01*
X2312659Y1144015D01*
X2291831Y1144015D01*
X2307325Y1055623D02*
G01*
X2338567Y1024636D01*
X2388351Y1144015D02*
G01*
X2445501Y1144015D01*
X2414259Y1102360D01*
X2430007Y1102360D01*
X2440421Y1097279D01*
X2445501Y1092200D01*
X2450835Y1076452D01*
X2450835Y1066037D01*
X2445501Y1050544D01*
X2435087Y1040129D01*
X2419593Y1035050D01*
X2404099Y1035050D01*
X2388351Y1040129D01*
X2383271Y1045210D01*
X2377937Y1055623D01*
X901710Y3963415D02*
G01*
X901710Y3854450D01*
X901710Y3963415D02*
G01*
X938032Y3963415D01*
X953780Y3958336D01*
X963940Y3947921D01*
X969274Y3937507D01*
X974354Y3921760D01*
X974354Y3895852D01*
X969274Y3880357D01*
X963940Y3869944D01*
X953780Y3859529D01*
X938032Y3854450D01*
X901710Y3854450D01*
X1013978Y3937507D02*
G01*
X1013978Y3942587D01*
X1019058Y3953002D01*
X1024392Y3958336D01*
X1034806Y3963415D01*
X1055380Y3963415D01*
X1065794Y3958336D01*
X1071128Y3953002D01*
X1076208Y3942587D01*
X1076208Y3932173D01*
X1071128Y3921760D01*
X1060714Y3906265D01*
X1008644Y3854450D01*
X1081542Y3854450D01*
X5234940Y3137915D02*
G01*
X5234940Y3028950D01*
X5234940Y3137915D02*
G01*
X5271261Y3137915D01*
X5287009Y3132836D01*
X5297170Y3122421D01*
X5302504Y3112007D01*
X5307584Y3096260D01*
X5307584Y3070352D01*
X5302504Y3054857D01*
X5297170Y3044444D01*
X5287009Y3034029D01*
X5271261Y3028950D01*
X5234940Y3028950D01*
X5341874Y3117087D02*
G01*
X5352288Y3122421D01*
X5368036Y3137915D01*
X5368036Y3028950D01*
X4253484Y764539D02*
G01*
X4362450Y764539D01*
X4253484Y764539D02*
G01*
X4253484Y800862D01*
X4258563Y816610D01*
X4268977Y826770D01*
X4279391Y832104D01*
X4295140Y837184D01*
X4321047Y837184D01*
X4336541Y832104D01*
X4346956Y826770D01*
X4357370Y816610D01*
X4362450Y800862D01*
X4362450Y764539D01*
X4253484Y923544D02*
G01*
X4326127Y871473D01*
X4326127Y949452D01*
X4253484Y923544D02*
G01*
X4362450Y923544D01*
X2971810Y1296415D02*
G01*
X2971810Y1187450D01*
X2971810Y1296415D02*
G01*
X3008132Y1296415D01*
X3023880Y1291336D01*
X3034040Y1280921D01*
X3039374Y1270507D01*
X3044454Y1254760D01*
X3044454Y1228852D01*
X3039374Y1213357D01*
X3034040Y1202944D01*
X3023880Y1192529D01*
X3008132Y1187450D01*
X2971810Y1187450D01*
X3089158Y1296415D02*
G01*
X3146308Y1296415D01*
X3115320Y1254760D01*
X3130814Y1254760D01*
X3141228Y1249679D01*
X3146308Y1244600D01*
X3151642Y1228852D01*
X3151642Y1218437D01*
X3146308Y1202944D01*
X3135894Y1192529D01*
X3120400Y1187450D01*
X3104906Y1187450D01*
X3089158Y1192529D01*
X3084078Y1197610D01*
X3078744Y1208023D01*
X2348484Y546110D02*
G01*
X2457450Y546110D01*
X2348484Y546110D02*
G01*
X2348484Y582432D01*
X2353563Y598180D01*
X2363977Y608340D01*
X2374391Y613674D01*
X2390140Y618754D01*
X2416047Y618754D01*
X2431541Y613674D01*
X2441956Y608340D01*
X2452370Y598180D01*
X2457450Y582432D01*
X2457450Y546110D01*
X2348484Y715528D02*
G01*
X2348484Y663458D01*
X2395220Y658378D01*
X2390140Y663458D01*
X2384806Y679206D01*
X2384806Y694700D01*
X2390140Y710194D01*
X2400300Y720608D01*
X2416047Y725942D01*
X2426461Y725942D01*
X2441956Y720608D01*
X2452370Y710194D01*
X2457450Y694700D01*
X2457450Y679206D01*
X2452370Y663458D01*
X2447290Y658378D01*
X2436875Y653044D01*
X10973308Y2728721D02*
G01*
X10983722Y2734055D01*
X10994136Y2744470D01*
X10999215Y2754629D01*
X10999215Y2775457D01*
X10994136Y2785871D01*
X10983722Y2796286D01*
X10973308Y2801620D01*
X10957559Y2806700D01*
X10931652Y2806700D01*
X10916158Y2801620D01*
X10905743Y2796286D01*
X10895329Y2785871D01*
X10890250Y2775457D01*
X10890250Y2754629D01*
X10895329Y2744470D01*
X10905743Y2734055D01*
X10916158Y2728721D01*
X10999215Y2694431D02*
G01*
X10890250Y2694431D01*
X10999215Y2694431D02*
G01*
X10890250Y2621787D01*
X10999215Y2621787D02*
G01*
X10890250Y2621787D01*
X10999215Y2525013D02*
G01*
X10999215Y2577084D01*
X10952479Y2582163D01*
X10957559Y2577084D01*
X10962893Y2561589D01*
X10962893Y2545842D01*
X10957559Y2530347D01*
X10947400Y2519934D01*
X10931652Y2514600D01*
X10921238Y2514600D01*
X10905743Y2519934D01*
X10895329Y2530347D01*
X10890250Y2545842D01*
X10890250Y2561589D01*
X10895329Y2577084D01*
X10900409Y2582163D01*
X10910824Y2587497D01*
X11115802Y2443479D02*
G01*
X11118088Y2438907D01*
X11124945Y2432050D01*
X11076431Y2432050D01*
X10973308Y3592321D02*
G01*
X10983722Y3597655D01*
X10994136Y3608070D01*
X10999215Y3618229D01*
X10999215Y3639057D01*
X10994136Y3649471D01*
X10983722Y3659886D01*
X10973308Y3665220D01*
X10957559Y3670300D01*
X10931652Y3670300D01*
X10916158Y3665220D01*
X10905743Y3659886D01*
X10895329Y3649471D01*
X10890250Y3639057D01*
X10890250Y3618229D01*
X10895329Y3608070D01*
X10905743Y3597655D01*
X10916158Y3592321D01*
X10999215Y3558031D02*
G01*
X10890250Y3558031D01*
X10999215Y3558031D02*
G01*
X10890250Y3485387D01*
X10999215Y3485387D02*
G01*
X10890250Y3485387D01*
X10999215Y3399028D02*
G01*
X10926572Y3451097D01*
X10926572Y3373120D01*
X10999215Y3399028D02*
G01*
X10890250Y3399028D01*
X11103102Y3332479D02*
G01*
X11105388Y3327907D01*
X11112245Y3321050D01*
X11063731Y3321050D01*
X11203177Y267207D02*
G01*
X11197843Y277621D01*
X11187429Y288036D01*
X11177270Y293115D01*
X11156441Y293115D01*
X11146027Y288036D01*
X11135613Y277621D01*
X11130279Y267207D01*
X11125200Y251460D01*
X11125200Y225552D01*
X11130279Y210057D01*
X11135613Y199644D01*
X11146027Y189229D01*
X11156441Y184150D01*
X11177270Y184150D01*
X11187429Y189229D01*
X11197843Y199644D01*
X11203177Y210057D01*
X11247881Y293115D02*
G01*
X11305031Y293115D01*
X11273790Y251460D01*
X11289284Y251460D01*
X11299697Y246379D01*
X11305031Y241300D01*
X11310111Y225552D01*
X11310111Y215137D01*
X11305031Y199644D01*
X11294618Y189229D01*
X11278870Y184150D01*
X11263375Y184150D01*
X11247881Y189229D01*
X11242547Y194310D01*
X11237468Y204723D01*
X10923777Y267207D02*
G01*
X10918443Y277621D01*
X10908029Y288036D01*
X10897870Y293115D01*
X10877041Y293115D01*
X10866627Y288036D01*
X10856213Y277621D01*
X10850879Y267207D01*
X10845800Y251460D01*
X10845800Y225552D01*
X10850879Y210057D01*
X10856213Y199644D01*
X10866627Y189229D01*
X10877041Y184150D01*
X10897870Y184150D01*
X10908029Y189229D01*
X10918443Y199644D01*
X10923777Y210057D01*
X11009884Y293115D02*
G01*
X10958068Y220471D01*
X11036045Y220471D01*
X11009884Y293115D02*
G01*
X11009884Y184150D01*
X3543274Y839215D02*
G01*
X3543274Y761237D01*
X3548354Y745744D01*
X3558768Y735329D01*
X3574516Y730250D01*
X3584930Y730250D01*
X3600424Y735329D01*
X3610838Y745744D01*
X3615918Y761237D01*
X3615918Y839215D01*
X3712692Y823721D02*
G01*
X3707358Y834136D01*
X3691864Y839215D01*
X3681450Y839215D01*
X3665956Y834136D01*
X3655542Y818387D01*
X3650208Y792479D01*
X3650208Y766571D01*
X3655542Y745744D01*
X3665956Y735329D01*
X3681450Y730250D01*
X3686784Y730250D01*
X3702278Y735329D01*
X3712692Y745744D01*
X3717772Y761237D01*
X3717772Y766571D01*
X3712692Y782065D01*
X3702278Y792479D01*
X3686784Y797560D01*
X3681450Y797560D01*
X3665956Y792479D01*
X3655542Y782065D01*
X3650208Y766571D01*
X2133597Y3099815D02*
G01*
X2133597Y2990850D01*
X2133597Y3099815D02*
G01*
X2180333Y3099815D01*
X2195827Y3094736D01*
X2201161Y3089402D01*
X2206241Y3078987D01*
X2206241Y3068573D01*
X2201161Y3058160D01*
X2195827Y3053079D01*
X2180333Y3048000D01*
X2133597Y3048000D01*
X2169919Y3048000D02*
G01*
X2206241Y2990850D01*
X2240531Y3078987D02*
G01*
X2250945Y3084321D01*
X2266693Y3099815D01*
X2266693Y2990850D01*
X2326891Y3099815D02*
G01*
X2311397Y3094736D01*
X2306063Y3084321D01*
X2306063Y3073907D01*
X2311397Y3063494D01*
X2321557Y3058160D01*
X2342385Y3053079D01*
X2358133Y3048000D01*
X2368547Y3037586D01*
X2373627Y3027171D01*
X2373627Y3011423D01*
X2368547Y3001010D01*
X2363213Y2995929D01*
X2347719Y2990850D01*
X2326891Y2990850D01*
X2311397Y2995929D01*
X2306063Y3001010D01*
X2300983Y3011423D01*
X2300983Y3027171D01*
X2306063Y3037586D01*
X2316477Y3048000D01*
X2331971Y3053079D01*
X2352799Y3058160D01*
X2363213Y3063494D01*
X2368547Y3073907D01*
X2368547Y3084321D01*
X2363213Y3094736D01*
X2347719Y3099815D01*
X2326891Y3099815D01*
X412236Y3112515D02*
G01*
X401822Y3107436D01*
X391408Y3097021D01*
X386074Y3086607D01*
X380994Y3070860D01*
X380994Y3044952D01*
X386074Y3029457D01*
X391408Y3019044D01*
X401822Y3008629D01*
X412236Y3003550D01*
X433064Y3003550D01*
X443224Y3008629D01*
X453638Y3019044D01*
X458972Y3029457D01*
X464052Y3044952D01*
X464052Y3070860D01*
X458972Y3086607D01*
X453638Y3097021D01*
X443224Y3107436D01*
X433064Y3112515D01*
X412236Y3112515D01*
X427730Y3024123D02*
G01*
X458972Y2993136D01*
X503676Y3086607D02*
G01*
X503676Y3091687D01*
X508756Y3102102D01*
X514090Y3107436D01*
X524504Y3112515D01*
X545078Y3112515D01*
X555492Y3107436D01*
X560826Y3102102D01*
X565906Y3091687D01*
X565906Y3081273D01*
X560826Y3070860D01*
X550412Y3055365D01*
X498342Y3003550D01*
X571240Y3003550D01*
X1180592Y1474978D02*
G01*
X1170178Y1469644D01*
X1159763Y1459229D01*
X1154684Y1449070D01*
X1154684Y1428242D01*
X1159763Y1417828D01*
X1170178Y1407413D01*
X1180592Y1402079D01*
X1196339Y1397000D01*
X1222247Y1397000D01*
X1237742Y1402079D01*
X1248155Y1407413D01*
X1258570Y1417828D01*
X1263650Y1428242D01*
X1263650Y1449070D01*
X1258570Y1459229D01*
X1248155Y1469644D01*
X1237742Y1474978D01*
X1154684Y1509268D02*
G01*
X1263650Y1509268D01*
X1154684Y1509268D02*
G01*
X1263650Y1581912D01*
X1154684Y1581912D02*
G01*
X1263650Y1581912D01*
X1154684Y1626615D02*
G01*
X1154684Y1683765D01*
X1196339Y1652523D01*
X1196339Y1668271D01*
X1201420Y1678686D01*
X1206500Y1683765D01*
X1222247Y1689100D01*
X1232662Y1689100D01*
X1248155Y1683765D01*
X1258570Y1673352D01*
X1263650Y1657857D01*
X1263650Y1642110D01*
X1258570Y1626615D01*
X1253489Y1621536D01*
X1243076Y1616202D01*
G36*
X4394200Y3938320D02*
G01*
X4375302Y3937914D01*
X4356404Y3936644D01*
X4337608Y3934612D01*
X4318914Y3931716D01*
X4300372Y3928059D01*
X4281982Y3923588D01*
X4263796Y3918305D01*
X4245914Y3912260D01*
X4228287Y3905402D01*
X4210964Y3897833D01*
X4193946Y3889451D01*
X4177385Y3880408D01*
X4161180Y3870604D01*
X4145432Y3860139D01*
X4130141Y3849014D01*
X4115358Y3837178D01*
X4101134Y3824732D01*
X4094226Y3818280D01*
X4694174Y3818280D01*
X4680204Y3831031D01*
X4665726Y3843172D01*
X4650689Y3854653D01*
X4635144Y3865473D01*
X4619193Y3875582D01*
X4602784Y3885031D01*
X4585970Y3893718D01*
X4568850Y3901694D01*
X4551375Y3908907D01*
X4533595Y3915359D01*
X4515510Y3921048D01*
X4497273Y3925925D01*
X4478782Y3929989D01*
X4460138Y3933291D01*
X4441393Y3935729D01*
X4422546Y3937355D01*
X4403648Y3938219D01*
G37*
G36*
X5257800Y3963720D02*
G01*
X5238902Y3963314D01*
X5220004Y3962044D01*
X5201208Y3960012D01*
X5182514Y3957116D01*
X5163972Y3953459D01*
X5145582Y3948988D01*
X5127396Y3943705D01*
X5109514Y3937660D01*
X5091887Y3930802D01*
X5074564Y3923233D01*
X5057546Y3914851D01*
X5040985Y3905808D01*
X5024780Y3896004D01*
X5009032Y3885539D01*
X4993741Y3874414D01*
X4978958Y3862578D01*
X4964734Y3850132D01*
X4957826Y3843680D01*
X5557774Y3843680D01*
X5543804Y3856431D01*
X5529326Y3868572D01*
X5514289Y3880053D01*
X5498744Y3890873D01*
X5482793Y3900982D01*
X5466384Y3910431D01*
X5449570Y3919118D01*
X5432450Y3927094D01*
X5414975Y3934307D01*
X5397195Y3940759D01*
X5379110Y3946448D01*
X5360873Y3951325D01*
X5342382Y3955389D01*
X5323738Y3958691D01*
X5304993Y3961129D01*
X5286146Y3962755D01*
X5267248Y3963619D01*
G37*
G36*
X2768600Y4000500D02*
G01*
X2667000Y3975100D01*
X2463800Y3848100D01*
X3175000Y3848100D01*
X3073400Y3924300D01*
X2921000Y3975100D01*
G37*
G36*
X1701800Y3987800D02*
G01*
X1600200Y3962400D01*
X1397000Y3835400D01*
X2108200Y3835400D01*
X2006600Y3911600D01*
X1854200Y3962400D01*
G37*
D41*
X2388400Y1689496D02*
G01*
X2263399Y1689496D01*
X2388400Y1485503D02*
G01*
X2263399Y1485503D01*
X2488399Y1689496D02*
G01*
X2613400Y1689496D01*
X2488399Y1485503D02*
G01*
X2613400Y1485503D01*
X2263396Y1689496D02*
G01*
X2263399Y1485503D01*
X2613400Y1689496D02*
G01*
X2613400Y1485503D01*
X7797800Y3467100D02*
G01*
X9829800Y3467100D01*
X8432800Y38100D02*
G01*
X9194800Y38100D01*
X9194800Y546100D01*
X8432800Y546100D01*
X8432800Y38100D01*
X8051800Y673100D02*
G01*
X7670800Y673100D01*
X7670800Y165100D01*
X8051800Y165100D01*
X8051800Y673100D01*
X8128000Y2755900D02*
G01*
X9499600Y2755900D01*
X9499600Y1104900D01*
X8128000Y1104900D01*
X8128000Y2755900D01*
X8128000Y2755900D02*
G01*
X8128000Y3467100D01*
X9499600Y2755900D02*
G01*
X9499600Y3467100D01*
X7543800Y795528D02*
G01*
X7670800Y668528D01*
X7670800Y33528D01*
X10083800Y3208528D02*
G01*
X10083800Y33528D01*
X7670800Y33528D01*
X7543800Y3208528D02*
G01*
X7543800Y795528D01*
X3466223Y3047603D02*
G01*
X3591224Y3047603D01*
X3466223Y3251596D02*
G01*
X3591224Y3251596D01*
X3366223Y3047603D02*
G01*
X3241222Y3047603D01*
X3366223Y3251596D02*
G01*
X3241222Y3251596D01*
X3591227Y3047603D02*
G01*
X3591224Y3251596D01*
X3241222Y3047603D02*
G01*
X3241222Y3251596D01*
X2200909Y2254300D02*
G01*
X2119401Y2254300D01*
X2119401Y2320289D01*
X2119401Y2480310D02*
G01*
X2119401Y2546299D01*
X2119401Y2480310D01*
X2119401Y2546299D01*
X2200909Y2546299D01*
D42*
X2274392Y2370302D02*
G01*
X2274392Y2430297D01*
D41*
X7327900Y3962400D02*
G01*
X7327900Y262407D01*
X5727903Y262407D01*
X5727903Y3962400D01*
X7327900Y3962400D01*
X7327900Y3762400D01*
X7327900Y3362401D01*
X10227500Y468299D02*
G01*
X10227500Y268300D01*
X10577504Y243296D02*
G01*
X10707499Y243296D01*
X10577504Y493303D02*
G01*
X10707499Y493303D01*
X10377497Y243296D02*
G01*
X10247500Y243296D01*
X10377497Y493303D02*
G01*
X10247500Y493303D01*
X10727502Y468299D02*
G01*
X10727502Y268300D01*
X10227500Y468299D02*
G01*
X10227500Y473303D01*
X10247500Y493303D01*
X10727502Y468299D02*
G01*
X10727502Y473301D01*
X10707499Y493303D01*
X10727502Y268300D02*
G01*
X10727502Y263298D01*
X10707499Y243296D01*
X10227500Y268300D02*
G01*
X10227500Y263296D01*
X10247500Y243296D01*
X10240200Y887399D02*
G01*
X10240200Y687400D01*
X10590204Y662396D02*
G01*
X10720199Y662396D01*
X10590204Y912403D02*
G01*
X10720199Y912403D01*
X10390197Y662396D02*
G01*
X10260200Y662396D01*
X10390197Y912403D02*
G01*
X10260200Y912403D01*
X10740202Y887399D02*
G01*
X10740202Y687400D01*
X10240200Y887399D02*
G01*
X10240200Y892403D01*
X10260200Y912403D01*
X10740202Y887399D02*
G01*
X10740202Y892401D01*
X10720199Y912403D01*
X10740202Y687400D02*
G01*
X10740202Y682398D01*
X10720199Y662396D01*
X10240200Y687400D02*
G01*
X10240200Y682396D01*
X10260200Y662396D01*
X4660800Y2405100D02*
G01*
X3060799Y2405100D01*
X4660800Y3005099D02*
G01*
X3060799Y3005099D01*
X4660800Y2405100D02*
G01*
X4660800Y3005099D01*
X3060799Y2405100D02*
G01*
X3060799Y3005099D01*
X261620Y3218179D02*
G01*
X261620Y3467100D01*
X261620Y3467100D02*
G01*
X210820Y3467100D01*
X210820Y3467100D02*
G01*
X210820Y3568700D01*
X210820Y3568700D02*
G01*
X261620Y3568700D01*
X261620Y3568700D02*
G01*
X261620Y3817620D01*
X261620Y3817620D02*
G01*
X711200Y3817620D01*
X711200Y3817620D02*
G01*
X711200Y3218179D01*
X711200Y3218179D02*
G01*
X261620Y3218179D01*
X3563620Y172720D02*
G01*
X3314700Y172720D01*
X3314700Y172720D02*
G01*
X3314700Y121920D01*
X3314700Y121920D02*
G01*
X3213100Y121920D01*
X3213100Y121920D02*
G01*
X3213100Y172720D01*
X3213100Y172720D02*
G01*
X2964179Y172720D01*
X2964179Y172720D02*
G01*
X2964179Y622300D01*
X2964179Y622300D02*
G01*
X3563620Y622300D01*
X3563620Y622300D02*
G01*
X3563620Y172720D01*
X2307696Y946899D02*
G01*
X2307696Y246900D01*
X2307696Y946899D02*
G01*
X2300886Y946899D01*
X2114496Y946899D02*
G01*
X1150901Y946899D01*
X964511Y946899D02*
G01*
X450903Y946899D01*
X264513Y946899D02*
G01*
X257703Y946899D01*
X257703Y946899D02*
G01*
X257703Y941064D01*
X257703Y722736D02*
G01*
X257703Y246900D01*
X257703Y246900D02*
G01*
X2114496Y246900D01*
X2300886Y246900D02*
G01*
X2307696Y246900D01*
D15*
X11455400Y1943100D02*
G01*
X11455400Y2133600D01*
X11201400Y2133600D01*
X11201400Y863600D01*
X11455400Y863600D01*
D43*
X11455400Y863600D02*
G01*
X11455400Y1943100D01*
D15*
X4965700Y2984500D02*
G01*
X4711700Y2984500D01*
X4711700Y3238500D01*
X4965700Y3238500D01*
X4965700Y3048000D01*
D43*
X4965700Y2984500D02*
G01*
X4965700Y3048000D01*
D15*
X11137900Y1930400D02*
G01*
X10883900Y1930400D01*
X10883900Y2184400D01*
X11137900Y2184400D01*
X11137900Y1993900D01*
D43*
X11137900Y1930400D02*
G01*
X11137900Y1993900D01*
D15*
X11137900Y876300D02*
G01*
X10883900Y876300D01*
X10883900Y1130300D01*
X11137900Y1130300D01*
X11137900Y939800D01*
D43*
X11137900Y876300D02*
G01*
X11137900Y939800D01*
D15*
X5549900Y2387600D02*
G01*
X5295900Y2387600D01*
X5295900Y2641600D01*
X5549900Y2641600D01*
X5549900Y2451100D01*
D43*
X5549900Y2387600D02*
G01*
X5549900Y2451100D01*
D15*
X5562600Y1358900D02*
G01*
X5308600Y1358900D01*
X5308600Y1612900D01*
X5562600Y1612900D01*
X5562600Y1422400D01*
D43*
X5562600Y1358900D02*
G01*
X5562600Y1422400D01*
D15*
X3022600Y1866900D02*
G01*
X2768600Y1866900D01*
X2768600Y2120900D01*
X3022600Y2120900D01*
X3022600Y1930400D01*
D43*
X3022600Y1866900D02*
G01*
X3022600Y1930400D01*
D15*
X3035300Y2159000D02*
G01*
X2781300Y2159000D01*
X2781300Y2413000D01*
X3035300Y2413000D01*
X3035300Y2222500D01*
D43*
X3035300Y2159000D02*
G01*
X3035300Y2222500D01*
D15*
X1320800Y2933700D02*
G01*
X1066800Y2933700D01*
X1066800Y3187700D01*
X1320800Y3187700D01*
X1320800Y2997200D01*
D43*
X1320800Y2933700D02*
G01*
X1320800Y2997200D01*
D15*
X8128000Y3606800D02*
G01*
X7874000Y3606800D01*
X7874000Y3860800D01*
X8128000Y3860800D01*
X8128000Y3670300D01*
D43*
X8128000Y3606800D02*
G01*
X8128000Y3670300D01*
D15*
X10820400Y2857500D02*
G01*
X10566400Y2857500D01*
X10566400Y3111500D01*
X10820400Y3111500D01*
X10820400Y2921000D01*
D43*
X10820400Y2857500D02*
G01*
X10820400Y2921000D01*
D15*
X10820400Y3721100D02*
G01*
X10566400Y3721100D01*
X10566400Y3975100D01*
X10820400Y3975100D01*
X10820400Y3784600D01*
D43*
X10820400Y3721100D02*
G01*
X10820400Y3784600D01*
D41*
X3962400Y1165301D02*
G01*
X3362401Y1165301D01*
X3362401Y1467187D01*
X3362401Y2063412D02*
G01*
X3362401Y2365298D01*
X4562398Y2365298D01*
X4562398Y2063412D01*
X4562398Y1467187D02*
G01*
X4562398Y1165301D01*
X3962400Y1165301D01*
X5588000Y2311400D02*
G01*
X5588000Y1676400D01*
X5562600Y2336800D02*
G01*
X5308600Y2336800D01*
X5562600Y1651000D02*
G01*
X5308600Y1651000D01*
X5283200Y1676400D02*
G01*
X5283200Y2311400D01*
X2692796Y2170899D02*
G01*
X2692796Y2295900D01*
X2488803Y2170899D02*
G01*
X2488803Y2295900D01*
X2692796Y2070900D02*
G01*
X2692796Y1945899D01*
X2488803Y2070900D02*
G01*
X2488803Y1945899D01*
X2692796Y2295903D02*
G01*
X2488803Y2295900D01*
X2692796Y1945899D02*
G01*
X2488803Y1945899D01*
X4914099Y1256903D02*
G01*
X5039100Y1256903D01*
X4914099Y1460896D02*
G01*
X5039100Y1460896D01*
X4814100Y1256903D02*
G01*
X4689099Y1256903D01*
X4814100Y1460896D02*
G01*
X4689099Y1460896D01*
X5039103Y1256903D02*
G01*
X5039100Y1460896D01*
X4689099Y1256903D02*
G01*
X4689099Y1460896D01*
X2488803Y2566200D02*
G01*
X2488803Y2441199D01*
X2692796Y2566200D02*
G01*
X2692796Y2441199D01*
X2488803Y2666199D02*
G01*
X2488803Y2791200D01*
X2692796Y2666199D02*
G01*
X2692796Y2791200D01*
X2488803Y2441196D02*
G01*
X2692796Y2441199D01*
X2488803Y2791200D02*
G01*
X2692796Y2791200D01*
X4914099Y1637903D02*
G01*
X5039100Y1637903D01*
X4914099Y1841896D02*
G01*
X5039100Y1841896D01*
X4814100Y1637903D02*
G01*
X4689099Y1637903D01*
X4814100Y1841896D02*
G01*
X4689099Y1841896D01*
X5039103Y1637903D02*
G01*
X5039100Y1841896D01*
X4689099Y1637903D02*
G01*
X4689099Y1841896D01*
X4025099Y177403D02*
G01*
X4150100Y177403D01*
X4025099Y381396D02*
G01*
X4150100Y381396D01*
X3925100Y177403D02*
G01*
X3800099Y177403D01*
X3925100Y381396D02*
G01*
X3800099Y381396D01*
X4150103Y177403D02*
G01*
X4150100Y381396D01*
X3800099Y177403D02*
G01*
X3800099Y381396D01*
X1751799Y2272903D02*
G01*
X1876800Y2272903D01*
X1751799Y2476896D02*
G01*
X1876800Y2476896D01*
X1651800Y2272903D02*
G01*
X1526799Y2272903D01*
X1651800Y2476896D02*
G01*
X1526799Y2476896D01*
X1876803Y2272903D02*
G01*
X1876800Y2476896D01*
X1526799Y2272903D02*
G01*
X1526799Y2476896D01*
X10705299Y1104503D02*
G01*
X10830300Y1104503D01*
X10705299Y1308496D02*
G01*
X10830300Y1308496D01*
X10605300Y1104503D02*
G01*
X10480299Y1104503D01*
X10605300Y1308496D02*
G01*
X10480299Y1308496D01*
X10830303Y1104503D02*
G01*
X10830300Y1308496D01*
X10480299Y1104503D02*
G01*
X10480299Y1308496D01*
X10705299Y1383903D02*
G01*
X10830300Y1383903D01*
X10705299Y1587896D02*
G01*
X10830300Y1587896D01*
X10605300Y1383903D02*
G01*
X10480299Y1383903D01*
X10605300Y1587896D02*
G01*
X10480299Y1587896D01*
X10830303Y1383903D02*
G01*
X10830300Y1587896D01*
X10480299Y1383903D02*
G01*
X10480299Y1587896D01*
X10819599Y1637903D02*
G01*
X10944600Y1637903D01*
X10819599Y1841896D02*
G01*
X10944600Y1841896D01*
X10719600Y1637903D02*
G01*
X10594599Y1637903D01*
X10719600Y1841896D02*
G01*
X10594599Y1841896D01*
X10944603Y1637903D02*
G01*
X10944600Y1841896D01*
X10594599Y1637903D02*
G01*
X10594599Y1841896D01*
X2983699Y1485503D02*
G01*
X3108700Y1485503D01*
X2983699Y1689496D02*
G01*
X3108700Y1689496D01*
X2883700Y1485503D02*
G01*
X2758699Y1485503D01*
X2883700Y1689496D02*
G01*
X2758699Y1689496D01*
X3108703Y1485503D02*
G01*
X3108700Y1689496D01*
X2758699Y1485503D02*
G01*
X2758699Y1689496D01*
X10579900Y2718196D02*
G01*
X10454899Y2718196D01*
X10579900Y2514203D02*
G01*
X10454899Y2514203D01*
X10679899Y2718196D02*
G01*
X10804900Y2718196D01*
X10679899Y2514203D02*
G01*
X10804900Y2514203D01*
X10454896Y2718196D02*
G01*
X10454899Y2514203D01*
X10804900Y2718196D02*
G01*
X10804900Y2514203D01*
X10706900Y2451496D02*
G01*
X10581899Y2451496D01*
X10706900Y2247503D02*
G01*
X10581899Y2247503D01*
X10806899Y2451496D02*
G01*
X10931900Y2451496D01*
X10806899Y2247503D02*
G01*
X10931900Y2247503D01*
X10581896Y2451496D02*
G01*
X10581899Y2247503D01*
X10931900Y2451496D02*
G01*
X10931900Y2247503D01*
X3644099Y3314303D02*
G01*
X3769100Y3314303D01*
X3644099Y3518296D02*
G01*
X3769100Y3518296D01*
X3544100Y3314303D02*
G01*
X3419099Y3314303D01*
X3544100Y3518296D02*
G01*
X3419099Y3518296D01*
X3769103Y3314303D02*
G01*
X3769100Y3518296D01*
X3419099Y3314303D02*
G01*
X3419099Y3518296D01*
X10567200Y3403996D02*
G01*
X10442199Y3403996D01*
X10567200Y3200003D02*
G01*
X10442199Y3200003D01*
X10667199Y3403996D02*
G01*
X10792200Y3403996D01*
X10667199Y3200003D02*
G01*
X10792200Y3200003D01*
X10442196Y3403996D02*
G01*
X10442199Y3200003D01*
X10792200Y3403996D02*
G01*
X10792200Y3200003D01*
X10567200Y3657996D02*
G01*
X10442199Y3657996D01*
X10567200Y3454003D02*
G01*
X10442199Y3454003D01*
X10667199Y3657996D02*
G01*
X10792200Y3657996D01*
X10667199Y3454003D02*
G01*
X10792200Y3454003D01*
X10442196Y3657996D02*
G01*
X10442199Y3454003D01*
X10792200Y3657996D02*
G01*
X10792200Y3454003D01*
X9715500Y3568700D02*
G01*
X9715500Y3695700D01*
X9817100Y3797300D01*
X9715500Y3975100D02*
G01*
X9715500Y3873500D01*
X9490506Y3996893D02*
G01*
X9940518Y3996893D01*
X9940518Y3546881D01*
X9490506Y3546881D01*
X9490506Y3996893D01*
X4251959Y3325119D02*
G01*
X4251959Y3200659D01*
X4320540Y3261619D02*
G01*
X4185920Y3261619D01*
X5115559Y3350519D02*
G01*
X5115559Y3226059D01*
X5184140Y3287019D02*
G01*
X5049520Y3287019D01*
X8690602Y3609596D02*
G01*
X8530600Y3609596D01*
X8690602Y3959603D02*
G01*
X8530597Y3959600D01*
X8506599Y3734600D02*
G01*
X8506599Y3629601D01*
X8714600Y3734600D02*
G01*
X8714600Y3629601D01*
X8506599Y3834599D02*
G01*
X8506599Y3939598D01*
X8714600Y3834599D02*
G01*
X8714600Y3939598D01*
X8692593Y3959603D02*
G01*
X8690602Y3959603D01*
X8694595Y3959603D02*
G01*
X8690602Y3959603D01*
X8526602Y3959600D02*
G01*
X8530597Y3959600D01*
X8694595Y3609596D02*
G01*
X8690602Y3609596D01*
X8526604Y3609596D02*
G01*
X8530600Y3609596D01*
X3406396Y3577597D02*
G01*
X3406396Y3737599D01*
X3756403Y3577597D02*
G01*
X3756400Y3737602D01*
X3531400Y3761600D02*
G01*
X3426401Y3761600D01*
X3531400Y3553599D02*
G01*
X3426401Y3553599D01*
X3631399Y3761600D02*
G01*
X3736398Y3761600D01*
X3631399Y3553599D02*
G01*
X3736398Y3553599D01*
X3756403Y3575606D02*
G01*
X3756403Y3577597D01*
X3756403Y3573604D02*
G01*
X3756403Y3577597D01*
X3756400Y3741597D02*
G01*
X3756400Y3737602D01*
X3406396Y3573604D02*
G01*
X3406396Y3577597D01*
X3406396Y3741595D02*
G01*
X3406396Y3737599D01*
X2819400Y3035300D02*
G01*
X2819400Y3136900D01*
X2743200Y3086100D02*
G01*
X2895600Y3086100D01*
X1752600Y3022600D02*
G01*
X1752600Y3124200D01*
X1676400Y3073400D02*
G01*
X1828800Y3073400D01*
X2200909Y1860600D02*
G01*
X2119401Y1860600D01*
X2119401Y1926589D01*
X2119401Y2086610D02*
G01*
X2119401Y2152599D01*
X2119401Y2086610D01*
X2119401Y2152599D01*
X2200909Y2152599D01*
D42*
X2274392Y1976602D02*
G01*
X2274392Y2036597D01*
D41*
X2787599Y1197610D02*
G01*
X2787599Y1116101D01*
X2721609Y1116101D01*
X2561590Y1116101D02*
G01*
X2495600Y1116101D01*
X2561590Y1116101D01*
X2495600Y1116101D01*
X2495600Y1197610D01*
D42*
X2671597Y1271092D02*
G01*
X2611602Y1271092D01*
D44*
X977900Y3567937D02*
G01*
X977900Y3440937D01*
X977900Y3542537D02*
G01*
X939800Y3542537D01*
X939800Y3542537D02*
G01*
X977900Y3466337D01*
X977900Y3466337D02*
G01*
X939800Y3466337D01*
X977900Y3542537D02*
G01*
X1016000Y3542537D01*
X1016000Y3542537D02*
G01*
X977900Y3466337D01*
X977900Y3466337D02*
G01*
X1016000Y3466337D01*
D41*
X1117897Y3418839D02*
G01*
X837900Y3418839D01*
X837902Y3275203D02*
G01*
X837900Y3735199D01*
X1117897Y3275203D02*
G01*
X1117899Y3735199D01*
X837902Y3275203D02*
G01*
X854786Y3275203D01*
X1101013Y3275203D02*
G01*
X1117897Y3275203D01*
X837900Y3735199D02*
G01*
X854786Y3735199D01*
X1101013Y3735199D02*
G01*
X1117899Y3735199D01*
D44*
X5307838Y2844800D02*
G01*
X5180838Y2844800D01*
X5282438Y2844800D02*
G01*
X5282438Y2882900D01*
X5282438Y2882900D02*
G01*
X5206238Y2844800D01*
X5206238Y2844800D02*
G01*
X5206238Y2882900D01*
X5282438Y2844800D02*
G01*
X5282438Y2806700D01*
X5282438Y2806700D02*
G01*
X5206238Y2844800D01*
X5206238Y2844800D02*
G01*
X5206238Y2806700D01*
D41*
X5158740Y2704802D02*
G01*
X5158740Y2984799D01*
X5015102Y2984797D02*
G01*
X5475099Y2984799D01*
X5015102Y2704802D02*
G01*
X5475099Y2704800D01*
X5015102Y2984797D02*
G01*
X5015102Y2967913D01*
X5015102Y2721686D02*
G01*
X5015102Y2704802D01*
X5475099Y2984799D02*
G01*
X5475099Y2967913D01*
X5475099Y2721686D02*
G01*
X5475099Y2704800D01*
D44*
X4546600Y837437D02*
G01*
X4546600Y710437D01*
X4546600Y812037D02*
G01*
X4508500Y812037D01*
X4508500Y812037D02*
G01*
X4546600Y735837D01*
X4546600Y735837D02*
G01*
X4508500Y735837D01*
X4546600Y812037D02*
G01*
X4584700Y812037D01*
X4584700Y812037D02*
G01*
X4546600Y735837D01*
X4546600Y735837D02*
G01*
X4584700Y735837D01*
D41*
X4686597Y688339D02*
G01*
X4406600Y688339D01*
X4406602Y544703D02*
G01*
X4406600Y1004699D01*
X4686597Y544703D02*
G01*
X4686599Y1004699D01*
X4406602Y544703D02*
G01*
X4423486Y544703D01*
X4669713Y544703D02*
G01*
X4686597Y544703D01*
X4406600Y1004699D02*
G01*
X4423486Y1004699D01*
X4669713Y1004699D02*
G01*
X4686599Y1004699D01*
D44*
X3112261Y977900D02*
G01*
X3239261Y977900D01*
X3137661Y977900D02*
G01*
X3137661Y939800D01*
X3137661Y939800D02*
G01*
X3213861Y977900D01*
X3213861Y977900D02*
G01*
X3213861Y939800D01*
X3137661Y977900D02*
G01*
X3137661Y1016000D01*
X3137661Y1016000D02*
G01*
X3213861Y977900D01*
X3213861Y977900D02*
G01*
X3213861Y1016000D01*
D41*
X3261359Y1117897D02*
G01*
X3261359Y837900D01*
X3404997Y837902D02*
G01*
X2945000Y837900D01*
X3404997Y1117897D02*
G01*
X2945000Y1117899D01*
X3404997Y837902D02*
G01*
X3404997Y854786D01*
X3404997Y1101013D02*
G01*
X3404997Y1117897D01*
X2945000Y837900D02*
G01*
X2945000Y854786D01*
X2945000Y1101013D02*
G01*
X2945000Y1117899D01*
D44*
X2628900Y634237D02*
G01*
X2628900Y507237D01*
X2628900Y608837D02*
G01*
X2590800Y608837D01*
X2590800Y608837D02*
G01*
X2628900Y532637D01*
X2628900Y532637D02*
G01*
X2590800Y532637D01*
X2628900Y608837D02*
G01*
X2667000Y608837D01*
X2667000Y608837D02*
G01*
X2628900Y532637D01*
X2628900Y532637D02*
G01*
X2667000Y532637D01*
D41*
X2768897Y485139D02*
G01*
X2488900Y485139D01*
X2488902Y341503D02*
G01*
X2488900Y801499D01*
X2768897Y341503D02*
G01*
X2768899Y801499D01*
X2488902Y341503D02*
G01*
X2505786Y341503D01*
X2752013Y341503D02*
G01*
X2768897Y341503D01*
X2488900Y801499D02*
G01*
X2505786Y801499D01*
X2752013Y801499D02*
G01*
X2768899Y801499D01*
X11498579Y3048000D02*
G01*
X11498579Y2263139D01*
X11498579Y2263139D02*
G01*
X11049000Y2263139D01*
X11049000Y2263139D02*
G01*
X11049000Y3048000D01*
X11049000Y3048000D02*
G01*
X11498579Y3048000D01*
X11485879Y3937000D02*
G01*
X11485879Y3152139D01*
X11485879Y3152139D02*
G01*
X11036300Y3152139D01*
X11036300Y3152139D02*
G01*
X11036300Y3937000D01*
X11036300Y3937000D02*
G01*
X11485879Y3937000D01*
D45*
X11340845Y317754D02*
G01*
X11340845Y825754D01*
X11086845Y825754D01*
X11086845Y317754D01*
X11340845Y317754D01*
X11048745Y317754D02*
G01*
X11048745Y825754D01*
X10794745Y825754D01*
X10794745Y317754D01*
X11048745Y317754D01*
D41*
X3745087Y917407D02*
G01*
X3745087Y657407D01*
X4205086Y917407D02*
G01*
X4205086Y657407D01*
X2345504Y2712100D02*
G01*
X2345504Y2952099D01*
X1995505Y2952099D02*
G01*
X1845505Y2952099D01*
X1995505Y2712100D02*
G01*
X1845505Y2712100D01*
X2195504Y2952099D02*
G01*
X2345504Y2952099D01*
X2195504Y2712100D02*
G01*
X2345504Y2712100D01*
X1845505Y2712100D02*
G01*
X1845505Y2952099D01*
X1023391Y2343574D02*
G01*
X1153393Y2343574D01*
X1153393Y2393553D01*
X1023391Y2393553D01*
X1022987Y2815805D02*
G01*
X1152984Y2815805D01*
X1152984Y2865818D01*
X1022987Y2865818D01*
X228401Y2246264D02*
G01*
X1023391Y2246264D01*
X1023391Y2960867D01*
X228401Y2960867D01*
X228401Y2246264D01*
X939800Y1130300D02*
G01*
X939800Y1066800D01*
X1025481Y1066800D01*
X1025481Y1130300D01*
X384218Y1130300D02*
G01*
X384218Y1066800D01*
X469900Y1066800D01*
X469900Y1130300D01*
X1024780Y1130300D02*
G01*
X1024780Y2146300D01*
X872380Y1130300D02*
G01*
X872380Y2146300D01*
X476143Y1130300D02*
G01*
X476143Y2146300D01*
X1083096Y1130300D02*
G01*
X1083096Y2146300D01*
X263103Y2146300D02*
G01*
X1083096Y2146300D01*
X263103Y1130300D02*
G01*
X1083096Y1130300D01*
X263103Y1130300D02*
G01*
X263103Y2146300D01*
G75*
G01*
X7543803Y3213097D02*
G02*
X7797803Y3467097I253999J1D01*
G75*
G01*
X9829797Y3467097D02*
G02*
X10083797Y3213097I1J-253999D01*
G75*
G01*
X5283200Y2311400D02*
G02*
X5308600Y2336800I25400J0D01*
G75*
G01*
X5308600Y1651000D02*
G02*
X5283200Y1676400I0J25400D01*
G75*
G01*
X5562600Y1651000D02*
G03*
X5588000Y1676400I0J25400D01*
G75*
G01*
X5588000Y2311400D02*
G03*
X5562600Y2336800I-25400J0D01*
G75*
G01*
X3994150Y3543554D02*
G03*
X3994150Y3550666I399984J3556D01*
G75*
G01*
X4857750Y3568954D02*
G03*
X4857750Y3576066I399984J3556D01*
G75*
G01*
X8714600Y3939598D02*
G03*
X8694595Y3959603I-20005J0D01*
G75*
G01*
X8506600Y3939598D02*
G02*
X8526602Y3959601I20002J0D01*
G75*
G01*
X8714600Y3629602D02*
G02*
X8694595Y3609597I-20005J0D01*
G75*
G01*
X8506600Y3629602D02*
G03*
X8526605Y3609597I20005J0D01*
G75*
G01*
X3736398Y3553600D02*
G03*
X3756403Y3573605I0J20005D01*
G75*
G01*
X3736398Y3761600D02*
G02*
X3756401Y3741598I0J-20002D01*
G75*
G01*
X3426402Y3553600D02*
G02*
X3406397Y3573605I0J20005D01*
G75*
G01*
X3426402Y3761600D02*
G03*
X3406397Y3741595I0J-20005D01*
D46*
G75*
G01*
X4197591Y982480D02*
G03*
X4197591Y982734I12499J127D01*
D47*
G75*
G01*
X1113409Y2293683D02*
G03*
X1113663Y2293683I127J-19999D01*
D41*
G75*
G01
X9880625Y3771900D02*
G03X9880625Y3771900I-165100J0D01*
G75*
G01
X3319272Y3492500D02*
G03X3319272Y3492500I-499872J0D01*
G75*
G01
X2252472Y3479800D02*
G03X2252472Y3479800I-499872J0D01*
M02*
