M48
METRIC,LZ,0000.00
;FILE_FORMAT=4:2
;TYPE=PLATED
;Layer: Drill PTH
;EasyEDA v6.4.14, 2021-01-13T22:08:33+05:30
;86367838682644779aaaf904656d52d0,3bf0aa112e6740ff84f30f28e6d2add8,10
;Gerber Generator version 0.2
;Holesize 1 = 0.305 mm
T01C0.305
;Holesize 2 = 0.306 mm
T02C0.306
;Holesize 3 = 0.501 mm
T03C0.501
;Holesize 4 = 0.712 mm
T04C0.712
;Holesize 5 = 0.798 mm
T05C0.798
;Holesize 6 = 0.889 mm
T06C0.889
;Holesize 7 = 0.915 mm
T07C0.915
;Holesize 8 = 1.000 mm
T08C1.000
;Holesize 9 = 1.016 mm
T09C1.016
;Holesize 10 = 1.501 mm
T10C1.501
;Holesize 11 = 1.600 mm
T11C1.600
%
G05
G90
T01
X010605Y001943
X010338Y002489
T02
X010541Y001016
X010338Y002489
T03
X003912Y002692
X003899Y003264
X010922Y001334
X010909Y001562
X010795Y000445
X007099Y000445
X009360Y003391
X009360Y001689
X009665Y003835
X009652Y001194
X001829Y002553
X002311Y002604
X003975Y001105
X002845Y000635
X004305Y000635
X005664Y001994
X007442Y001943
X004991Y002146
X006998Y002121
X006960Y001791
X003200Y001689
X010363Y003150
X004394Y001397
X004394Y001105
T04
X011214Y000699
X011214Y000445
X010922Y000699
X010922Y000445
T05
X000432Y003419
X000432Y003617
X003363Y000343
X003165Y000343
X011265Y002855
X011265Y002654
X011265Y002454
X011252Y003744
X011252Y003543
X011252Y003343
T06
X011328Y000991
X011328Y001245
X011328Y001499
X011328Y001753
X011328Y002007
X004839Y003112
X011011Y002057
X011011Y001003
X005423Y002515
X005436Y001486
X002896Y001994
X002908Y002286
X001194Y003061
X008001Y003734
X010693Y002985
X010693Y003848
T07
X005410Y000813
X005410Y000613
X005410Y000413
X005010Y000813
X005010Y000613
X005010Y000413
T08
X006853Y000512
X006203Y000512
X006203Y003712
X006853Y003712
X004861Y002705
X002861Y002705
X004394Y003668
X004394Y003418
X005258Y003694
X005258Y003444
X002819Y003239
X002819Y003747
X001753Y003226
X001753Y003734
T09
X007671Y002705
X009957Y000927
X009957Y001181
X009957Y001435
X009957Y001689
X009957Y001943
X009957Y002197
X009957Y002451
X009957Y002705
X007671Y000927
X007671Y001181
X007671Y001435
X007671Y001689
X007671Y001943
X007671Y002197
X007671Y002451
T10
X002208Y000832
X001058Y000832
X000358Y000832
X002208Y000362
T11
X000673Y001384
X000673Y001892
M30
