G04 Layer: TopSolderMaskLayer*
G04 EasyEDA v6.4.14, 2021-01-13T22:08:33+05:30*
G04 86367838682644779aaaf904656d52d0,3bf0aa112e6740ff84f30f28e6d2add8,10*
G04 Gerber Generator version 0.2*
G04 Scale: 100 percent, Rotated: No, Reflected: No *
G04 Dimensions in millimeters *
G04 leading zeros omitted , absolute positions ,4 integer and 5 decimal *
%FSLAX45Y45*%
%MOMM*%

%ADD49C,1.7032*%
%ADD50C,0.7832*%
%ADD51C,2.0032*%
%ADD56C,1.9032*%
%ADD58C,1.6256*%
%ADD59C,2.7032*%
%ADD60C,1.7780*%
%ADD63R,2.7432X1.4732*%
%ADD66C,1.8032*%
%ADD70C,1.3970*%
%ADD73C,2.6032*%

%LPD*%
D49*
X5360200Y812800D02*
G01*
X5460199Y812800D01*
X5360200Y612800D02*
G01*
X5460199Y612800D01*
X5360200Y412800D02*
G01*
X5460199Y412800D01*
X4960200Y812800D02*
G01*
X5060200Y812800D01*
X4960200Y612800D02*
G01*
X5060200Y612800D01*
X4960200Y412800D02*
G01*
X5060200Y412800D01*
D50*
X4125112Y1018425D02*
G01*
X4125112Y896426D01*
X3975100Y1018428D02*
G01*
X3975100Y836429D01*
X3825087Y1018425D02*
G01*
X3825087Y896426D01*
D51*
X3975100Y797392D02*
G01*
X3975100Y627392D01*
D50*
X3825087Y678421D02*
G01*
X3825087Y556422D01*
X4125112Y678421D02*
G01*
X4125112Y556422D01*
G36*
X2596388Y983487D02*
G01*
X2596388Y1128776D01*
X2686811Y1128776D01*
X2686811Y983487D01*
G37*
G36*
X2478277Y1499870D02*
G01*
X2478277Y1675129D01*
X2598674Y1675129D01*
X2598674Y1499870D01*
G37*
G36*
X2278125Y1499870D02*
G01*
X2278125Y1675129D01*
X2398522Y1675129D01*
X2398522Y1499870D01*
G37*
G36*
X7496047Y2603500D02*
G01*
X7496047Y2806700D01*
X7845552Y2806700D01*
X7845552Y2603500D01*
G37*
G36*
X9782047Y825500D02*
G01*
X9782047Y1028700D01*
X10131552Y1028700D01*
X10131552Y825500D01*
G37*
G36*
X9782047Y1079500D02*
G01*
X9782047Y1282700D01*
X10131552Y1282700D01*
X10131552Y1079500D01*
G37*
G36*
X9782047Y1333500D02*
G01*
X9782047Y1536700D01*
X10131552Y1536700D01*
X10131552Y1333500D01*
G37*
G36*
X9782047Y1587500D02*
G01*
X9782047Y1790700D01*
X10131552Y1790700D01*
X10131552Y1587500D01*
G37*
G36*
X9782047Y1841500D02*
G01*
X9782047Y2044700D01*
X10131552Y2044700D01*
X10131552Y1841500D01*
G37*
G36*
X9782047Y2095500D02*
G01*
X9782047Y2298700D01*
X10131552Y2298700D01*
X10131552Y2095500D01*
G37*
G36*
X9782047Y2349500D02*
G01*
X9782047Y2552700D01*
X10131552Y2552700D01*
X10131552Y2349500D01*
G37*
G36*
X9782047Y2603500D02*
G01*
X9782047Y2806700D01*
X10131552Y2806700D01*
X10131552Y2603500D01*
G37*
G36*
X7496047Y825500D02*
G01*
X7496047Y1028700D01*
X7845552Y1028700D01*
X7845552Y825500D01*
G37*
G36*
X7496047Y1079500D02*
G01*
X7496047Y1282700D01*
X7845552Y1282700D01*
X7845552Y1079500D01*
G37*
G36*
X7496047Y1333500D02*
G01*
X7496047Y1536700D01*
X7845552Y1536700D01*
X7845552Y1333500D01*
G37*
G36*
X7496047Y1587500D02*
G01*
X7496047Y1790700D01*
X7845552Y1790700D01*
X7845552Y1587500D01*
G37*
G36*
X7496047Y1841500D02*
G01*
X7496047Y2044700D01*
X7845552Y2044700D01*
X7845552Y1841500D01*
G37*
G36*
X7496047Y2095500D02*
G01*
X7496047Y2298700D01*
X7845552Y2298700D01*
X7845552Y2095500D01*
G37*
G36*
X7496047Y2349500D02*
G01*
X7496047Y2552700D01*
X7845552Y2552700D01*
X7845552Y2349500D01*
G37*
G36*
X3256025Y3061970D02*
G01*
X3256025Y3237229D01*
X3376422Y3237229D01*
X3376422Y3061970D01*
G37*
G36*
X3456177Y3061970D02*
G01*
X3456177Y3237229D01*
X3576320Y3237229D01*
X3576320Y3061970D01*
G37*
G36*
X1986787Y2355087D02*
G01*
X1986787Y2445512D01*
X2132075Y2445512D01*
X2132075Y2355087D01*
G37*
G36*
X2236724Y2450084D02*
G01*
X2236724Y2540507D01*
X2382011Y2540507D01*
X2382011Y2450084D01*
G37*
G36*
X2236724Y2260092D02*
G01*
X2236724Y2350515D01*
X2382011Y2350515D01*
X2382011Y2260092D01*
G37*
D56*
G01*
X6852920Y512318D03*
G01*
X6202934Y512318D03*
G01*
X6202934Y3712463D03*
G01*
X6852920Y3712463D03*
G36*
X10567415Y263144D02*
G01*
X10567415Y473455D01*
X10707624Y473455D01*
X10707624Y263144D01*
G37*
G36*
X10247375Y263144D02*
G01*
X10247375Y473455D01*
X10387584Y473455D01*
X10387584Y263144D01*
G37*
G36*
X10580115Y682244D02*
G01*
X10580115Y892555D01*
X10720324Y892555D01*
X10720324Y682244D01*
G37*
G36*
X10260075Y682244D02*
G01*
X10260075Y892555D01*
X10400284Y892555D01*
X10400284Y682244D01*
G37*
D51*
G01*
X4860797Y2705100D03*
G01*
X2860802Y2705100D03*
D58*
G01*
X431800Y3418839D03*
G01*
X431800Y3616960D03*
G01*
X3362959Y342900D03*
G01*
X3164840Y342900D03*
D59*
G01*
X2207691Y831900D03*
G01*
X1057706Y831900D03*
G01*
X357708Y831900D03*
G01*
X2207691Y361899D03*
D60*
G01*
X11328400Y990600D03*
G01*
X11328400Y1244600D03*
G01*
X11328400Y1498600D03*
G01*
X11328400Y1752600D03*
G36*
X11239500Y1917700D02*
G01*
X11239500Y2095500D01*
X11417300Y2095500D01*
X11417300Y1917700D01*
G37*
G36*
X4749800Y3022600D02*
G01*
X4749800Y3200400D01*
X4927600Y3200400D01*
X4927600Y3022600D01*
G37*
G36*
X10922000Y1968500D02*
G01*
X10922000Y2146300D01*
X11099800Y2146300D01*
X11099800Y1968500D01*
G37*
G36*
X10922000Y914400D02*
G01*
X10922000Y1092200D01*
X11099800Y1092200D01*
X11099800Y914400D01*
G37*
G36*
X5334000Y2425700D02*
G01*
X5334000Y2603500D01*
X5511800Y2603500D01*
X5511800Y2425700D01*
G37*
G36*
X5346700Y1397000D02*
G01*
X5346700Y1574800D01*
X5524500Y1574800D01*
X5524500Y1397000D01*
G37*
G36*
X2806700Y1905000D02*
G01*
X2806700Y2082800D01*
X2984500Y2082800D01*
X2984500Y1905000D01*
G37*
G36*
X2819400Y2197100D02*
G01*
X2819400Y2374900D01*
X2997200Y2374900D01*
X2997200Y2197100D01*
G37*
G36*
X1104900Y2971800D02*
G01*
X1104900Y3149600D01*
X1282700Y3149600D01*
X1282700Y2971800D01*
G37*
G36*
X7912100Y3644900D02*
G01*
X7912100Y3822700D01*
X8089900Y3822700D01*
X8089900Y3644900D01*
G37*
G36*
X10604500Y2895600D02*
G01*
X10604500Y3073400D01*
X10782300Y3073400D01*
X10782300Y2895600D01*
G37*
G36*
X10604500Y3759200D02*
G01*
X10604500Y3937000D01*
X10782300Y3937000D01*
X10782300Y3759200D01*
G37*
G36*
X4302252Y1480057D02*
G01*
X4302252Y2050542D01*
X4622545Y2050542D01*
X4622545Y1480057D01*
G37*
G36*
X3302254Y1480057D02*
G01*
X3302254Y2050542D01*
X3622547Y2050542D01*
X3622547Y1480057D01*
G37*
D63*
G01*
X5435600Y1739900D03*
G01*
X5435600Y1993900D03*
G01*
X5435600Y2247900D03*
G36*
X2503170Y1960626D02*
G01*
X2503170Y2081021D01*
X2678429Y2081021D01*
X2678429Y1960626D01*
G37*
G36*
X2503170Y2160778D02*
G01*
X2503170Y2281173D01*
X2678429Y2281173D01*
X2678429Y2160778D01*
G37*
G36*
X4703825Y1271270D02*
G01*
X4703825Y1446529D01*
X4824222Y1446529D01*
X4824222Y1271270D01*
G37*
G36*
X4903977Y1271270D02*
G01*
X4903977Y1446529D01*
X5024374Y1446529D01*
X5024374Y1271270D01*
G37*
G36*
X2503170Y2656078D02*
G01*
X2503170Y2776473D01*
X2678429Y2776473D01*
X2678429Y2656078D01*
G37*
G36*
X2503170Y2455926D02*
G01*
X2503170Y2576321D01*
X2678429Y2576321D01*
X2678429Y2455926D01*
G37*
G36*
X4703825Y1652270D02*
G01*
X4703825Y1827529D01*
X4824222Y1827529D01*
X4824222Y1652270D01*
G37*
G36*
X4903977Y1652270D02*
G01*
X4903977Y1827529D01*
X5024374Y1827529D01*
X5024374Y1652270D01*
G37*
G36*
X3814825Y191770D02*
G01*
X3814825Y367029D01*
X3935222Y367029D01*
X3935222Y191770D01*
G37*
G36*
X4014977Y191770D02*
G01*
X4014977Y367029D01*
X4135374Y367029D01*
X4135374Y191770D01*
G37*
G36*
X1541526Y2287270D02*
G01*
X1541526Y2462529D01*
X1661921Y2462529D01*
X1661921Y2287270D01*
G37*
G36*
X1741678Y2287270D02*
G01*
X1741678Y2462529D01*
X1862073Y2462529D01*
X1862073Y2287270D01*
G37*
G36*
X10495025Y1118870D02*
G01*
X10495025Y1294129D01*
X10615422Y1294129D01*
X10615422Y1118870D01*
G37*
G36*
X10695177Y1118870D02*
G01*
X10695177Y1294129D01*
X10815574Y1294129D01*
X10815574Y1118870D01*
G37*
G36*
X10495025Y1398270D02*
G01*
X10495025Y1573529D01*
X10615422Y1573529D01*
X10615422Y1398270D01*
G37*
G36*
X10695177Y1398270D02*
G01*
X10695177Y1573529D01*
X10815574Y1573529D01*
X10815574Y1398270D01*
G37*
G36*
X10609325Y1652270D02*
G01*
X10609325Y1827529D01*
X10729722Y1827529D01*
X10729722Y1652270D01*
G37*
G36*
X10809477Y1652270D02*
G01*
X10809477Y1827529D01*
X10929874Y1827529D01*
X10929874Y1652270D01*
G37*
G36*
X2773425Y1499870D02*
G01*
X2773425Y1675129D01*
X2893822Y1675129D01*
X2893822Y1499870D01*
G37*
G36*
X2973577Y1499870D02*
G01*
X2973577Y1675129D01*
X3093974Y1675129D01*
X3093974Y1499870D01*
G37*
G36*
X10669777Y2528570D02*
G01*
X10669777Y2703829D01*
X10790174Y2703829D01*
X10790174Y2528570D01*
G37*
G36*
X10469625Y2528570D02*
G01*
X10469625Y2703829D01*
X10590022Y2703829D01*
X10590022Y2528570D01*
G37*
G36*
X10796777Y2261870D02*
G01*
X10796777Y2437129D01*
X10917174Y2437129D01*
X10917174Y2261870D01*
G37*
G36*
X10596625Y2261870D02*
G01*
X10596625Y2437129D01*
X10717022Y2437129D01*
X10717022Y2261870D01*
G37*
G36*
X3433825Y3328670D02*
G01*
X3433825Y3503929D01*
X3554222Y3503929D01*
X3554222Y3328670D01*
G37*
G36*
X3633977Y3328670D02*
G01*
X3633977Y3503929D01*
X3754374Y3503929D01*
X3754374Y3328670D01*
G37*
G36*
X10657077Y3214370D02*
G01*
X10657077Y3389629D01*
X10777474Y3389629D01*
X10777474Y3214370D01*
G37*
G36*
X10456925Y3214370D02*
G01*
X10456925Y3389629D01*
X10577322Y3389629D01*
X10577322Y3214370D01*
G37*
G36*
X10657077Y3468370D02*
G01*
X10657077Y3643629D01*
X10777474Y3643629D01*
X10777474Y3468370D01*
G37*
G36*
X10456925Y3468370D02*
G01*
X10456925Y3643629D01*
X10577322Y3643629D01*
X10577322Y3468370D01*
G37*
G36*
X9270238Y3851655D02*
G01*
X9270238Y3992118D01*
X9460738Y3992118D01*
X9460738Y3851655D01*
G37*
G36*
X9270238Y3551681D02*
G01*
X9270238Y3692144D01*
X9460738Y3692144D01*
X9460738Y3551681D01*
G37*
G36*
X9970261Y3851655D02*
G01*
X9970261Y3992118D01*
X10160761Y3992118D01*
X10160761Y3851655D01*
G37*
G36*
X9970261Y3551681D02*
G01*
X9970261Y3692144D01*
X10160761Y3692144D01*
X10160761Y3551681D01*
G37*
D66*
G01*
X4394200Y3668293D03*
G01*
X4394200Y3418306D03*
G01*
X5257800Y3693693D03*
G01*
X5257800Y3443706D03*
G36*
X8522970Y3824478D02*
G01*
X8522970Y3944873D01*
X8698229Y3944873D01*
X8698229Y3824478D01*
G37*
G36*
X8522970Y3624326D02*
G01*
X8522970Y3744721D01*
X8698229Y3744721D01*
X8698229Y3624326D01*
G37*
G36*
X3621277Y3569970D02*
G01*
X3621277Y3745229D01*
X3741674Y3745229D01*
X3741674Y3569970D01*
G37*
G36*
X3421125Y3569970D02*
G01*
X3421125Y3745229D01*
X3541522Y3745229D01*
X3541522Y3569970D01*
G37*
G01*
X2819400Y3238500D03*
G01*
X2819400Y3746500D03*
G01*
X1752600Y3225800D03*
G01*
X1752600Y3733800D03*
G36*
X1986787Y1961387D02*
G01*
X1986787Y2051812D01*
X2132075Y2051812D01*
X2132075Y1961387D01*
G37*
G36*
X2236724Y2056384D02*
G01*
X2236724Y2146807D01*
X2382011Y2146807D01*
X2382011Y2056384D01*
G37*
G36*
X2236724Y1866392D02*
G01*
X2236724Y1956815D01*
X2382011Y1956815D01*
X2382011Y1866392D01*
G37*
G36*
X2501391Y1233423D02*
G01*
X2501391Y1378712D01*
X2591815Y1378712D01*
X2591815Y1233423D01*
G37*
G36*
X2691384Y1233423D02*
G01*
X2691384Y1378712D01*
X2781808Y1378712D01*
X2781808Y1233423D01*
G37*
G36*
X867663Y3614928D02*
G01*
X867663Y3815334D01*
X1088136Y3815334D01*
X1088136Y3614928D01*
G37*
G36*
X867663Y3195065D02*
G01*
X867663Y3395471D01*
X1088136Y3395471D01*
X1088136Y3195065D01*
G37*
G36*
X5354827Y2734563D02*
G01*
X5354827Y2955036D01*
X5555234Y2955036D01*
X5555234Y2734563D01*
G37*
G36*
X4934965Y2734563D02*
G01*
X4934965Y2955036D01*
X5135372Y2955036D01*
X5135372Y2734563D01*
G37*
G36*
X4436363Y884428D02*
G01*
X4436363Y1084834D01*
X4656836Y1084834D01*
X4656836Y884428D01*
G37*
G36*
X4436363Y464565D02*
G01*
X4436363Y664971D01*
X4656836Y664971D01*
X4656836Y464565D01*
G37*
G36*
X2864865Y867663D02*
G01*
X2864865Y1088136D01*
X3065272Y1088136D01*
X3065272Y867663D01*
G37*
G36*
X3284727Y867663D02*
G01*
X3284727Y1088136D01*
X3485134Y1088136D01*
X3485134Y867663D01*
G37*
G36*
X2518663Y681228D02*
G01*
X2518663Y881634D01*
X2739136Y881634D01*
X2739136Y681228D01*
G37*
G36*
X2518663Y261365D02*
G01*
X2518663Y461771D01*
X2739136Y461771D01*
X2739136Y261365D01*
G37*
G36*
X11146790Y2784855D02*
G01*
X11146790Y2925063D01*
X11383009Y2925063D01*
X11383009Y2784855D01*
G37*
G36*
X11146790Y2584195D02*
G01*
X11146790Y2724404D01*
X11383009Y2724404D01*
X11383009Y2584195D01*
G37*
G36*
X11146790Y2383536D02*
G01*
X11146790Y2523744D01*
X11383009Y2523744D01*
X11383009Y2383536D01*
G37*
G36*
X11134090Y3673855D02*
G01*
X11134090Y3814063D01*
X11370309Y3814063D01*
X11370309Y3673855D01*
G37*
G36*
X11134090Y3473195D02*
G01*
X11134090Y3613404D01*
X11370309Y3613404D01*
X11370309Y3473195D01*
G37*
G36*
X11134090Y3272536D02*
G01*
X11134090Y3412744D01*
X11370309Y3412744D01*
X11370309Y3272536D01*
G37*
D70*
G01*
X11214100Y698500D03*
G01*
X11214100Y444500D03*
G01*
X10922000Y698500D03*
G01*
X10922000Y444500D03*
G36*
X1865376Y2726944D02*
G01*
X1865376Y2937255D01*
X2005584Y2937255D01*
X2005584Y2726944D01*
G37*
G36*
X2185415Y2726944D02*
G01*
X2185415Y2937255D01*
X2325624Y2937255D01*
X2325624Y2726944D01*
G37*
G36*
X268478Y2293365D02*
G01*
X268478Y2913634D01*
X938784Y2913634D01*
X938784Y2293365D01*
G37*
G36*
X1166876Y2283460D02*
G01*
X1166876Y2463800D01*
X1487170Y2463800D01*
X1487170Y2283460D01*
G37*
G36*
X1166113Y2743200D02*
G01*
X1166113Y2923539D01*
X1486662Y2923539D01*
X1486662Y2743200D01*
G37*
D73*
G01*
X673100Y1384300D03*
G01*
X673100Y1892300D03*
M02*
